<?xml version="1.0" standalone="no"?>
<!DOCTYPE svg PUBLIC "-//W3C//DTD SVG 20010904//EN"
 "http://www.w3.org/TR/2001/REC-SVG-20010904/DTD/svg10.dtd">
<svg version="1.0" xmlns="http://www.w3.org/2000/svg"
 width="1920.000000pt" height="1920.000000pt" viewBox="0 0 1920.000000 1920.000000"
 preserveAspectRatio="xMidYMid meet">
<metadata>
Created by potrace 1.14, written by Peter Selinger 2001-2017
</metadata>
<g transform="translate(0.000000,1920.000000) scale(0.100000,-0.100000)"
fill="#000000" stroke="none">
<path d="M0 9600 l0 -9600 769 0 c606 0 771 3 775 13 5 9 7 9 12 0 10 -22 24
-14 24 12 0 25 1 25 80 25 64 0 80 3 80 15 0 11 -11 15 -40 15 -22 0 -40 5
-40 10 0 6 18 10 40 10 22 0 40 -4 40 -10 0 -5 18 -10 40 -10 22 0 40 5 40 10
0 6 22 10 49 10 28 0 53 -4 56 -10 4 -6 -15 -10 -49 -10 l-56 0 0 -40 0 -40
80 0 80 0 0 40 0 40 40 0 40 0 0 -40 c0 -29 4 -40 15 -40 11 0 15 11 15 40 0
36 3 40 25 40 23 0 25 3 25 50 l0 50 40 0 40 0 0 70 c0 39 4 70 10 70 5 0 22
12 37 28 l28 27 3 -67 c2 -52 6 -68 17 -68 12 0 15 17 15 80 0 79 0 80 25 80
23 0 25 4 25 40 0 22 -4 40 -10 40 -5 0 -10 18 -10 40 0 36 3 40 24 40 18 0
25 6 28 23 2 14 11 23 26 25 18 3 22 10 22 43 0 39 0 39 40 39 29 0 40 4 40
15 0 8 -7 15 -16 15 -8 0 -13 4 -9 9 3 5 22 7 43 5 82 -11 82 -11 82 -54 0
-36 -2 -39 -32 -42 l-33 -4 28 -12 c16 -7 61 -12 102 -12 68 0 75 -2 94 -27
l21 -28 20 25 c11 14 20 19 20 13 0 -8 15 -13 40 -13 22 0 40 -4 40 -10 0 -5
-18 -10 -40 -10 -22 0 -40 -4 -40 -10 0 -5 23 -10 50 -10 28 0 50 5 50 10 0
15 57 12 64 -2 3 -7 4 -4 1 8 -9 36 4 54 41 54 19 0 34 -4 34 -10 0 -5 18 -10
40 -10 33 0 40 3 40 19 0 16 -8 21 -42 24 -24 2 -6 4 40 5 l82 2 0 -30 c0 -28
2 -30 40 -30 38 0 40 2 40 30 0 34 25 42 35 11 3 -11 15 -23 26 -26 10 -4 19
-13 19 -21 0 -18 26 -18 37 -1 4 8 18 16 29 19 17 4 20 2 17 -13 -5 -16 -1
-18 24 -13 20 4 35 1 45 -9 9 -9 45 -18 91 -22 67 -6 77 -5 77 9 0 9 7 16 17
16 15 0 15 1 -1 19 -16 17 -16 19 1 25 10 4 22 2 28 -6 30 -39 42 -40 76 -6
l34 33 3 -32 c5 -52 22 -38 22 17 0 43 4 52 30 72 30 21 39 38 21 38 -5 0 -24
14 -42 31 -31 29 -33 35 -31 91 2 39 -1 57 -8 53 -5 -3 -10 -15 -10 -26 0 -21
-15 -26 -26 -8 -3 6 -1 14 5 18 8 6 8 16 -2 42 -8 19 -12 40 -10 47 6 15 -16
44 -27 37 -4 -3 -13 2 -20 10 -10 12 -9 20 4 40 15 23 15 25 -4 35 -16 8 -20
21 -20 60 0 29 -5 50 -11 50 -6 0 -8 8 -5 18 3 9 11 58 16 107 16 135 16 137
33 174 12 29 16 31 20 15 3 -11 5 -13 6 -4 1 8 18 24 38 35 35 19 57 55 34 55
-6 0 -11 -7 -11 -15 0 -18 0 -18 -41 0 l-34 14 40 2 c22 1 57 1 78 0 28 -2 37
1 37 13 0 9 -7 16 -15 16 -8 0 -17 11 -21 25 -4 17 -13 25 -28 25 -20 0 -19 2
7 23 23 18 29 32 34 80 6 59 19 76 25 32 3 -24 4 -25 25 -10 19 13 23 25 23
71 0 34 -4 53 -10 49 -6 -4 -10 10 -10 34 0 30 4 41 15 41 11 0 15 11 15 40 0
32 -4 40 -18 40 -17 0 -19 10 -19 114 1 126 -2 134 -66 157 -26 9 -37 19 -37
33 0 20 0 20 -15 0 -14 -18 -16 -18 -29 -1 -7 9 -18 17 -23 17 -12 0 -34 119
-33 176 0 26 -5 48 -15 58 -9 9 -13 20 -10 26 4 6 -10 17 -29 25 -20 9 -36 20
-36 25 0 6 -3 9 -7 9 -38 -6 -46 2 -40 38 4 20 11 39 17 43 7 5 6 11 -5 20
-12 10 -15 10 -15 -4 0 -12 -10 -16 -40 -16 -22 0 -40 5 -40 10 0 6 16 10 35
10 31 0 35 3 35 25 0 16 4 23 13 19 20 -7 21 70 2 86 -13 11 -14 10 -9 -5 5
-13 4 -16 -4 -11 -14 8 -17 186 -3 186 4 0 12 -31 15 -70 l7 -70 35 0 c31 0
34 2 34 30 0 20 -5 30 -15 30 -9 0 -15 10 -15 26 0 14 -7 32 -15 40 -21 21
-19 34 5 34 13 0 20 7 20 20 0 11 -7 20 -15 20 -19 0 -19 3 4 41 11 17 17 42
15 55 -2 13 0 24 6 24 5 0 10 14 10 30 0 26 -4 30 -27 30 -29 0 -26 10 4 14
28 4 29 42 2 49 l-23 6 22 19 c15 13 22 31 22 56 0 22 5 36 13 36 6 0 19 5 27
10 13 9 13 11 0 20 -8 5 -25 10 -37 10 -13 0 -23 5 -23 10 0 6 11 10 25 10 14
0 25 4 25 10 0 5 11 12 25 16 32 8 36 54 5 54 -11 0 -23 -7 -26 -15 -8 -19
-34 -19 -34 0 0 8 5 15 10 15 6 0 10 14 10 30 0 17 -4 30 -10 30 -5 0 -10 5
-10 10 0 6 9 10 20 10 17 0 20 7 20 40 0 33 -3 40 -20 40 -17 0 -20 7 -20 49
0 28 4 53 10 56 5 3 10 17 10 31 0 13 5 24 10 24 17 0 11 29 -10 47 -28 24
-25 33 10 33 23 0 28 3 23 16 -4 10 1 22 12 30 14 11 16 18 7 43 -9 25 -7 33
9 52 20 23 23 37 13 64 -5 13 -8 14 -15 3 -6 -9 -9 -7 -9 10 0 13 6 22 15 22
8 0 19 9 25 19 12 23 14 141 2 141 -4 0 -6 18 -4 40 3 27 0 40 -8 40 -8 0 -10
8 -5 22 3 13 8 32 10 43 2 11 4 22 6 25 1 3 3 28 3 55 1 30 11 69 24 97 28 57
32 107 9 120 -23 12 -22 42 1 36 15 -4 17 1 13 36 -2 23 -6 43 -10 46 -15 11
-48 167 -44 202 4 28 1 38 -8 38 -8 0 1 10 19 21 33 21 33 22 13 40 -16 15
-19 27 -14 56 3 21 10 41 15 44 6 4 3 20 -6 38 -9 17 -14 36 -11 42 4 5 1 16
-5 24 -10 12 -10 18 1 31 7 9 9 18 3 22 -5 4 -10 14 -12 22 -2 8 -8 17 -13 18
-5 2 -9 12 -9 22 0 10 -3 20 -7 23 -5 2 -2 2 5 1 22 -6 14 65 -13 110 -27 46
-71 74 -89 56 -7 -7 -4 -10 10 -10 16 0 17 -2 4 -10 -23 -15 -43 -12 -36 5 3
9 -3 24 -14 35 -26 26 -25 28 5 22 17 -3 27 1 31 12 3 9 15 16 25 16 22 0 25
13 5 29 -19 16 -8 57 20 76 13 8 24 24 24 35 0 13 7 20 19 20 23 0 34 50 27
120 -8 76 -15 91 -38 79 -24 -13 -20 -19 -41 65 -16 64 -16 70 -1 81 10 7 14
17 10 24 -10 16 -16 53 -22 134 -3 50 -10 73 -24 87 -20 20 -23 32 -20 85 1
20 -8 40 -27 62 -55 62 -63 73 -63 87 0 8 -7 27 -14 43 -26 49 -47 132 -40
158 3 14 2 31 -4 38 -5 6 -13 32 -16 57 -4 29 -13 50 -26 59 -11 7 -20 21 -20
30 0 14 2 14 10 1 6 -9 10 -10 10 -3 0 6 -4 15 -10 18 -5 3 -10 24 -10 46 0
26 -7 46 -20 59 -11 11 -20 28 -20 38 0 10 -7 27 -15 38 -8 10 -15 31 -15 46
0 18 -7 29 -20 33 -11 3 -20 13 -20 21 0 8 -3 14 -7 14 -9 0 -8 107 3 205 4
39 7 94 6 123 -2 46 0 52 18 52 11 0 20 5 20 10 0 6 -7 10 -16 10 -14 0 -14 2
0 22 9 12 16 30 16 40 0 10 7 18 15 18 11 0 15 11 15 40 0 22 -5 40 -10 40 -7
0 -7 7 0 21 6 11 11 39 10 62 -4 92 2 144 22 216 24 87 38 181 26 181 -10 0 2
91 14 107 5 7 7 21 4 31 -4 11 0 24 9 32 8 7 15 29 15 50 0 33 23 97 50 140
21 34 59 127 65 163 3 21 12 37 19 37 10 0 15 22 18 77 3 45 10 79 17 81 6 2
11 14 11 27 0 12 7 28 15 35 8 7 15 23 15 37 0 13 7 26 15 29 8 4 15 12 15 20
0 8 4 22 10 32 5 9 19 51 29 94 11 42 31 100 44 130 27 56 47 136 66 253 17
107 34 158 54 163 20 5 23 22 5 22 -7 0 -5 5 5 11 23 13 112 98 113 107 3 44
20 102 35 121 41 51 51 140 24 204 -9 21 -12 43 -9 49 10 16 5 102 -6 106 -15
5 33 71 55 75 19 4 19 4 -1 6 -19 1 -22 9 -28 74 -4 39 -12 90 -18 112 -6 22
-11 52 -13 68 -1 15 -2 36 -3 47 -1 12 -9 20 -19 20 -17 1 -17 2 -1 13 9 7 20
31 23 52 4 22 12 46 17 52 6 7 7 24 4 37 -5 19 -1 28 14 36 11 6 20 20 20 30
0 14 7 20 21 20 19 0 21 4 16 33 -3 17 -8 40 -12 50 -6 14 -1 17 35 17 34 0
47 6 70 30 22 24 34 29 54 24 18 -4 27 -1 35 14 17 31 14 72 -5 72 -23 0 -8
17 32 36 23 11 48 15 74 11 35 -4 40 -2 40 14 0 10 7 19 15 19 11 0 15 12 15
44 0 44 -12 66 -25 46 -3 -5 -33 -8 -65 -6 -33 2 -57 0 -54 -5 6 -11 -14 -49
-26 -49 -5 0 -16 12 -24 28 -13 24 -15 25 -16 6 0 -15 -11 -24 -40 -34 -22 -7
-40 -17 -40 -21 0 -5 -42 -7 -92 -4 -58 2 -92 8 -90 14 3 17 -15 13 -22 -4 -4
-11 -21 -15 -61 -15 -30 0 -55 -4 -55 -9 0 -6 -19 -12 -42 -14 l-43 -4 43 -1
c35 -2 42 -5 42 -22 0 -30 -71 -29 -85 2 -17 37 -62 62 -110 63 -29 0 -45 4
-45 13 0 6 -4 12 -10 12 -5 0 -10 -9 -10 -20 0 -22 -20 -26 -38 -8 -9 9 -15
10 -20 2 -7 -11 -37 -31 -106 -70 -32 -18 -136 -32 -136 -18 0 26 43 121 61
137 12 9 18 17 15 17 -4 0 1 11 10 25 9 14 22 25 28 25 7 0 18 17 25 38 18 50
59 110 81 117 10 3 21 16 24 30 3 13 18 37 32 54 l26 31 -31 0 c-26 0 -31 4
-31 24 0 25 -16 36 -56 36 -40 0 -27 20 14 21 l37 1 -35 12 c-19 6 -39 14 -45
17 -9 6 -48 17 -85 25 -8 2 -37 6 -65 10 l-50 6 -2 40 c0 23 -6 43 -11 47 -22
13 -38 76 -31 116 11 56 11 125 0 125 -5 0 -24 14 -42 31 -26 24 -32 38 -31
62 6 70 20 183 27 205 6 17 3 22 -9 22 -12 0 -16 10 -16 40 0 33 -3 40 -20 40
-22 0 -27 28 -10 61 9 17 7 19 -18 19 -24 0 -31 5 -34 25 -7 32 -3 35 49 35
23 0 43 5 43 10 0 6 8 10 18 10 12 0 23 -15 35 -47 21 -59 21 -79 2 -87 -20
-7 -19 -26 1 -26 14 0 16 -9 12 -52 -3 -29 -3 -47 -1 -40 3 7 22 12 44 12 22
0 39 5 39 11 0 12 58 69 70 69 5 0 11 -6 14 -12 5 -10 7 -10 12 0 3 6 19 12
35 12 24 0 29 4 29 26 0 30 22 55 50 57 15 1 20 8 20 29 0 15 -4 28 -10 28 -5
0 -10 5 -10 10 0 6 7 10 15 10 8 0 15 -4 15 -10 0 -5 18 -10 40 -10 22 0 40 5
40 10 0 6 -13 10 -30 10 -28 0 -30 2 -30 40 0 36 -2 40 -25 40 -22 0 -25 4
-25 40 0 36 -2 40 -25 40 -20 0 -25 5 -25 25 0 15 -6 25 -14 25 -8 0 -16 6
-19 14 -4 10 6 16 34 20 30 5 39 11 39 26 0 13 -7 20 -20 20 -11 0 -20 7 -20
15 0 9 9 15 25 15 16 0 25 -6 25 -16 0 -11 5 -14 16 -10 9 3 33 6 55 6 35 0
39 3 39 25 0 16 6 25 15 25 8 0 15 -7 15 -15 0 -20 56 -20 76 0 9 8 14 25 12
37 -3 26 -38 38 -38 14 0 -20 -26 -21 -34 -1 -4 10 1 15 14 15 45 0 9 174 -40
200 -11 6 -20 17 -20 25 0 11 -13 15 -49 15 -40 0 -54 5 -80 29 -34 31 -40 51
-16 51 8 0 15 6 15 14 0 7 -7 19 -15 26 -8 7 -15 20 -15 28 0 13 -3 12 -14 -4
-21 -28 -44 -5 -29 30 12 25 1 46 -24 46 -7 0 -13 5 -13 10 0 6 -6 10 -12 10
-20 1 -68 47 -68 65 0 23 -46 66 -63 59 -8 -3 -18 0 -22 5 -3 6 -11 9 -16 5
-12 -7 -59 34 -59 52 0 19 -77 54 -120 54 -22 0 -40 4 -40 8 0 4 -17 14 -37
21 -21 8 -46 22 -56 32 -22 24 -67 25 -67 3 0 -11 -5 -14 -17 -9 -10 4 -26 10
-35 12 -10 3 -16 9 -13 13 2 4 -17 5 -43 3 l-47 -4 -39 63 c-33 54 -40 60 -46
43 -5 -12 -7 0 -6 32 2 29 4 54 7 56 21 15 69 27 109 27 61 0 67 19 8 22 -40
1 -40 2 -9 5 19 3 55 -3 80 -13 32 -12 46 -14 49 -6 6 18 53 14 67 -4 11 -15
15 -15 49 1 34 16 39 17 47 3 4 -8 27 -20 51 -27 54 -16 108 -42 108 -52 0
-10 66 -20 148 -23 82 -3 101 -8 117 -29 7 -9 17 -17 22 -17 6 0 16 -12 22
-28 16 -37 56 -53 131 -51 40 1 65 -2 70 -10 4 -7 35 -15 69 -18 33 -3 61 -10
61 -14 0 -5 17 -9 38 -9 20 0 42 -4 48 -8 18 -12 38 -55 44 -97 3 -24 11 -39
18 -37 7 1 18 -9 24 -23 6 -14 15 -25 20 -25 4 0 8 -7 8 -15 0 -8 9 -20 20
-27 11 -7 20 -18 20 -25 0 -6 14 -22 31 -35 16 -13 45 -37 62 -53 18 -17 59
-44 91 -59 32 -16 85 -46 117 -67 32 -22 62 -39 67 -39 6 0 12 -7 15 -14 3 -8
22 -18 41 -21 22 -5 38 -14 41 -26 3 -10 12 -16 19 -13 7 3 34 -16 60 -41 30
-28 57 -45 72 -45 13 0 24 -4 24 -8 0 -15 106 -72 133 -72 15 0 27 -4 27 -9 0
-5 18 -11 40 -15 26 -4 40 -11 40 -21 0 -8 7 -15 17 -15 9 0 30 -16 48 -35 17
-20 42 -37 55 -40 14 -3 26 -9 28 -14 2 -6 10 -7 19 -4 10 4 14 2 10 -4 -4 -6
7 -16 26 -23 17 -6 39 -16 47 -21 37 -23 82 -39 112 -39 18 -1 44 -7 58 -15
14 -8 37 -14 51 -15 15 0 32 -6 38 -14 8 -9 30 -13 69 -11 36 1 66 -3 80 -12
13 -8 33 -13 46 -11 12 1 51 -13 87 -32 61 -33 70 -34 174 -36 164 -4 226 -9
234 -22 5 -8 12 -5 24 9 12 13 24 18 37 14 12 -4 20 -2 20 4 0 6 9 11 20 11
11 0 27 11 36 25 9 14 21 22 26 19 5 -3 16 3 24 15 27 37 72 53 153 54 45 0
82 5 91 12 37 31 110 26 132 -9 10 -14 84 -12 103 4 8 7 15 18 15 25 0 8 17
24 37 36 21 13 40 26 43 30 3 3 24 16 48 28 23 12 42 28 42 36 0 8 5 15 12 15
6 0 29 18 49 40 38 40 39 41 112 41 72 0 74 1 93 32 49 83 66 205 43 318 -6
30 -10 107 -10 172 1 64 -2 117 -6 117 -5 0 -7 57 -5 126 2 73 -1 139 -8 157
-7 22 -7 33 1 38 8 4 6 14 -5 32 -11 16 -13 27 -7 31 6 4 8 12 5 20 -3 7 -6
64 -8 127 -2 63 -7 149 -11 192 -6 56 -5 77 4 77 13 0 15 36 2 44 -5 4 -10 83
-10 177 -1 94 -3 175 -6 179 -13 20 -24 194 -14 213 7 12 7 22 2 26 -8 5 -16
139 -26 434 -1 26 -6 47 -11 47 -4 0 -3 7 4 15 6 8 9 19 5 25 -4 6 -1 18 6 26
8 10 9 21 2 37 -6 12 -8 48 -5 80 3 38 1 57 -7 57 -15 0 -14 77 0 82 9 3 9 9
1 24 -15 28 -24 256 -10 248 8 -5 8 0 3 17 -5 13 -10 56 -10 94 -1 39 -3 72
-4 75 -1 3 -4 75 -6 160 -3 85 -8 207 -11 270 -4 63 -8 175 -9 248 -1 73 -5
135 -8 139 -4 3 -2 14 4 25 5 10 7 23 4 28 -3 5 -8 63 -10 127 -11 282 -15
421 -21 618 -7 271 -14 447 -18 510 -2 28 -4 69 -5 93 l-1 42 -3585 0 -3585 0
0 -9600z m5340 5920 c0 -12 7 -20 18 -20 21 -1 56 -29 65 -54 8 -21 -32 -114
-58 -136 -19 -16 -53 3 -61 35 -7 29 -8 29 -35 13 -18 -11 -23 -10 -40 11 -26
32 -24 66 6 89 14 11 25 24 25 30 0 5 9 12 20 15 11 3 20 12 20 21 0 9 8 16
20 16 13 0 20 -7 20 -20z m-2663 -902 c-3 -8 -6 -5 -6 6 -1 11 2 17 5 13 3 -3
4 -12 1 -19z m1083 -872 c0 -8 -4 -18 -10 -21 -5 -3 -10 3 -10 14 0 12 5 21
10 21 6 0 10 -6 10 -14z m-230 -371 c0 -8 -7 -15 -15 -15 -8 0 -15 7 -15 15 0
8 7 15 15 15 8 0 15 -7 15 -15z m-130 -25 c0 -5 -9 -10 -20 -10 -11 0 -20 5
-20 10 0 6 9 10 20 10 11 0 20 -4 20 -10z m1007 -1596 c-3 -3 -12 -4 -19 -1
-8 3 -5 6 6 6 11 1 17 -2 13 -5z m-937 -98 c0 -3 -4 -8 -10 -11 -5 -3 -10 -1
-10 4 0 6 5 11 10 11 6 0 10 -2 10 -4z m750 -156 c0 -13 -5 -17 -14 -14 -24 9
-28 34 -6 34 13 0 20 -7 20 -20z m-252 -9192 c-3 -7 -11 -13 -18 -13 -7 0 -15
6 -17 13 -3 7 4 12 17 12 13 0 20 -5 18 -12z m-1568 -1548 c0 -22 -4 -40 -10
-40 -5 0 -10 18 -10 40 0 22 5 40 10 40 6 0 10 -18 10 -40z m460 -111 c0 -7
15 -10 40 -7 28 2 40 0 40 -9 0 -18 -68 -17 -86 1 -16 17 -18 26 -4 26 6 0 10
-5 10 -11z m1040 1 c0 -5 -7 -10 -16 -10 -8 0 -12 5 -9 10 3 6 10 10 16 10 5
0 9 -4 9 -10z m-1520 -26 c0 -8 -4 -12 -10 -9 -5 3 -10 10 -10 16 0 5 5 9 10
9 6 0 10 -7 10 -16z m-750 -510 c0 -19 -4 -34 -10 -34 -5 0 -10 18 -10 41 0
24 4 38 10 34 6 -3 10 -22 10 -41z"/>
<path d="M5288 15428 c9 -9 15 -9 24 0 9 9 7 12 -12 12 -19 0 -21 -3 -12 -12z"/>
<path d="M12960 19161 c0 -23 -5 -41 -12 -44 -10 -3 -10 -7 1 -20 10 -13 11
-38 5 -119 -5 -57 -7 -121 -6 -143 2 -22 -1 -59 -6 -82 -6 -26 -6 -45 0 -51 6
-6 7 -19 4 -30 -7 -20 -15 -242 -18 -469 -1 -68 -4 -123 -7 -123 -3 0 -6 -37
-7 -82 -1 -46 -3 -133 -6 -194 -3 -61 -2 -132 2 -157 4 -29 2 -60 -6 -84 -9
-26 -10 -39 -3 -44 7 -4 7 -13 -2 -27 -10 -16 -10 -23 0 -35 7 -10 8 -16 2
-19 -7 -2 -11 -64 -12 -162 -1 -87 -4 -194 -8 -237 -4 -43 -3 -79 1 -79 4 0 5
-6 2 -13 -5 -14 -14 -229 -17 -427 -1 -69 -6 -131 -10 -137 -4 -7 -3 -21 3
-32 12 -23 13 -34 2 -27 -7 4 -8 -50 -12 -387 -1 -65 1 -121 4 -124 3 -4 1
-12 -5 -19 -6 -8 -13 -77 -15 -166 -5 -187 -13 -403 -14 -403 -3 0 -9 -170
-15 -375 -3 -124 -9 -272 -14 -330 -6 -58 -10 -114 -11 -125 0 -11 -2 -78 -5
-150 -2 -71 -6 -161 -9 -200 -21 -372 -20 -452 9 -441 8 3 17 1 20 -4 3 -4 1
-10 -5 -12 -5 -1 -10 -40 -11 -86 -1 -74 1 -86 22 -110 13 -15 27 -28 32 -30
4 -2 7 -10 7 -18 0 -28 84 -29 101 -1 7 10 65 3 88 -12 9 -6 15 -30 17 -65 5
-104 83 -178 136 -129 10 9 28 21 40 27 13 6 28 21 34 34 6 12 18 30 27 40 10
10 17 24 17 30 0 7 8 12 19 12 16 0 19 -10 23 -75 5 -70 7 -77 41 -110 36 -35
61 -44 71 -26 4 5 27 20 53 32 52 25 144 32 151 11 2 -7 10 -12 17 -12 7 0 24
-13 37 -28 13 -16 29 -27 36 -24 7 2 23 1 35 -2 20 -5 22 -11 19 -51 -4 -51 9
-75 37 -68 27 7 61 -14 61 -38 0 -44 82 -89 160 -89 27 0 50 -4 50 -9 0 -14
72 -9 95 6 11 7 26 13 35 13 8 0 36 11 62 25 26 14 59 25 74 25 15 0 49 16 75
35 27 19 58 35 68 35 11 0 26 7 35 15 8 8 32 15 53 15 57 1 122 18 151 40 13
11 33 20 42 20 10 0 23 7 30 15 7 9 19 14 26 11 7 -3 27 2 44 10 17 9 41 17
53 19 12 2 38 8 57 14 19 6 45 11 58 11 13 0 30 7 38 15 9 8 27 18 41 21 14 4
34 15 44 25 11 11 30 19 44 19 14 0 25 3 25 8 0 7 30 25 63 38 9 3 17 12 17
19 0 7 17 16 37 20 20 4 46 13 57 21 11 8 30 14 43 14 12 0 25 5 28 10 8 14
89 13 137 -2 60 -18 89 -82 95 -214 4 -81 2 -106 -11 -132 -9 -18 -14 -37 -11
-42 3 -5 -5 -33 -19 -62 -18 -37 -22 -54 -14 -59 9 -6 8 -12 -2 -24 -10 -12
-15 -13 -21 -4 -4 6 -5 -9 -2 -34 5 -41 3 -46 -17 -49 -13 -1 -28 -12 -34 -23
-6 -11 -15 -23 -21 -27 -6 -4 -5 -19 3 -41 7 -18 12 -57 12 -85 0 -42 -5 -56
-27 -79 -24 -24 -26 -28 -10 -31 12 -2 17 -13 17 -37 0 -18 3 -42 6 -52 5 -15
4 -15 -5 -3 -8 12 -11 6 -11 -27 0 -24 -4 -43 -9 -43 -5 0 -12 -9 -16 -19 -3
-11 -15 -23 -26 -26 -10 -4 -19 -13 -19 -21 0 -8 -8 -14 -19 -14 -16 0 -20
-11 -26 -76 -5 -56 -4 -79 5 -84 9 -5 9 -9 1 -14 -6 -4 -11 -2 -11 3 0 6 -7
11 -15 11 -8 0 -15 9 -15 20 0 13 -7 20 -20 20 -21 0 -26 -10 -11 -26 5 -5 10
-29 11 -54 3 -74 2 -75 -20 -55 -18 17 -19 16 -25 -8 -8 -30 16 -82 45 -97 11
-6 20 -17 20 -24 0 -8 8 -16 18 -20 20 -6 54 -28 62 -38 3 -4 12 -3 20 2 20
13 60 13 60 0 0 -5 -15 -16 -32 -24 -28 -12 -30 -14 -10 -15 18 -1 22 -7 22
-32 0 -18 -10 -58 -21 -90 -16 -44 -30 -63 -55 -78 -40 -24 -44 -41 -9 -41 18
0 25 -5 25 -20 0 -11 -4 -20 -9 -20 -17 0 -20 -30 -6 -62 8 -19 14 -26 15 -15
0 24 30 22 30 -3 0 -11 -7 -20 -15 -20 -19 0 -19 -3 5 -42 13 -22 20 -51 20
-85 0 -50 2 -53 25 -53 30 0 31 -3 3 -40 -18 -25 -20 -33 -10 -56 7 -14 9 -30
6 -36 -10 -16 -19 -108 -16 -160 2 -23 7 -28 27 -28 14 0 26 -6 26 -12 1 -7 3
-20 4 -28 0 -8 4 -22 7 -30 14 -38 25 -111 27 -175 1 -38 7 -71 12 -73 5 -2 9
-11 9 -21 0 -9 5 -22 12 -29 7 -7 11 -28 10 -47 -2 -24 3 -37 15 -44 10 -5 24
-30 32 -55 8 -27 19 -46 28 -46 8 0 12 -4 9 -8 -3 -5 0 -64 6 -132 12 -122 12
-123 42 -139 49 -26 86 -70 86 -102 0 -16 5 -38 12 -49 9 -15 9 -24 -1 -43 -8
-15 -10 -31 -5 -38 8 -13 9 -27 17 -144 3 -37 8 -51 20 -53 13 -3 17 -14 17
-48 0 -24 -4 -44 -10 -44 -25 0 -5 -144 22 -162 9 -5 8 -11 -1 -21 -10 -13 -9
-17 5 -25 12 -7 19 -26 22 -65 4 -46 1 -61 -18 -86 -12 -17 -20 -41 -19 -54 2
-12 -3 -32 -9 -45 -11 -20 -10 -22 8 -22 28 0 25 -24 -5 -44 -28 -18 -33 -36
-10 -36 11 0 15 -11 15 -40 0 -41 19 -58 21 -17 0 22 0 22 10 1 7 -14 7 -34 0
-62 -11 -39 -14 -41 -54 -45 l-42 -4 43 -1 c40 -2 42 -3 42 -33 l0 -32 -50 5
c-27 3 -50 1 -50 -3 0 -5 11 -9 25 -9 25 0 25 -1 25 -80 l0 -80 -55 0 c-30 0
-55 5 -55 10 0 6 -33 10 -80 10 -47 0 -80 -4 -80 -10 0 -6 33 -10 80 -10 64 0
80 -3 80 -15 0 -13 -24 -15 -155 -15 -175 0 -193 -6 -270 -84 -38 -37 -46 -41
-89 -41 -41 1 -52 -4 -82 -33 -27 -26 -38 -32 -44 -22 -7 11 -14 11 -41 0 -18
-8 -41 -22 -51 -32 -10 -10 -29 -20 -43 -24 -14 -3 -25 -10 -25 -15 0 -5 -18
-9 -40 -9 -26 0 -40 -5 -40 -13 0 -7 -10 -13 -22 -14 -12 -1 -26 -9 -30 -18
-11 -19 -44 -20 -52 0 -4 12 -26 15 -111 15 -87 0 -105 -3 -105 -15 0 -11 -11
-15 -40 -15 -29 0 -40 4 -40 15 0 32 -19 13 -25 -26 -10 -60 -34 -79 -97 -79
-67 0 -180 -18 -193 -31 -5 -5 -24 -9 -42 -9 -38 0 -37 3 -18 -44 15 -34 14
-36 -5 -36 -17 0 -20 -7 -20 -45 0 -42 11 -58 25 -36 3 6 14 8 25 6 11 -2 24
3 28 12 7 12 22 14 85 8 43 -4 77 -11 77 -16 0 -5 14 -9 30 -9 18 0 30 5 30
13 0 7 6 25 13 40 9 20 19 27 40 27 25 0 27 -3 27 -40 0 -22 -4 -40 -10 -40
-5 0 -10 -18 -10 -40 0 -22 5 -40 10 -40 6 0 10 18 10 40 0 22 5 40 10 40 6 0
10 7 10 15 0 11 11 15 40 15 29 0 40 -4 40 -15 0 -8 7 -15 15 -15 8 0 15 5 15
10 0 6 -7 13 -15 16 -8 4 -15 17 -15 30 0 19 5 24 24 24 13 0 26 -7 30 -15 4
-11 20 -15 56 -15 27 0 50 -4 50 -9 0 -5 35 -12 78 -16 94 -8 123 -15 117 -26
-3 -4 3 -13 14 -18 26 -14 31 -14 31 4 0 12 17 15 97 15 94 0 96 0 79 19 -17
19 -17 20 3 31 16 8 27 8 42 -1 21 -11 21 -11 -12 -45 -32 -33 -35 -34 -112
-34 -76 0 -177 -24 -177 -42 0 -5 -72 -8 -159 -8 -158 0 -160 0 -164 -22 l-4
-23 -8 22 c-8 24 -35 32 -35 11 0 -7 -5 -20 -10 -28 -8 -12 -12 -12 -18 -2 -9
13 -112 19 -132 7 -9 -6 -6 -13 11 -26 13 -10 19 -19 13 -19 -7 0 -15 -11 -18
-25 -4 -14 -13 -25 -20 -25 -16 0 -25 -19 -19 -37 5 -15 83 -18 83 -4 0 5 -5
11 -12 13 -7 3 -5 7 6 11 11 5 25 -1 40 -18 27 -29 46 -32 46 -8 0 15 3 14 22
-4 21 -22 21 -23 4 -42 -10 -11 -22 -18 -27 -16 -4 3 -27 -1 -51 -9 -24 -7
-83 -19 -133 -26 -49 -6 -100 -17 -113 -23 -12 -6 -32 -32 -45 -58 -13 -29
-29 -48 -39 -49 -9 0 -18 -6 -21 -12 -3 -10 -7 -10 -20 1 -13 10 -20 11 -30 2
-8 -6 -75 -13 -155 -16 -131 -5 -142 -4 -153 13 -10 16 -18 18 -63 10 -44 -7
-55 -5 -79 13 -16 11 -43 21 -60 21 -18 0 -59 -1 -91 -1 -33 -1 -62 3 -66 8
-7 13 -80 14 -150 2 -30 -4 -59 -6 -63 -4 -4 3 -38 9 -74 14 -37 5 -70 13 -73
17 -13 17 -83 33 -120 27 -30 -5 -43 -2 -57 12 -13 13 -30 17 -60 15 -26 -2
-43 1 -43 7 0 6 -18 11 -40 11 -22 0 -40 5 -40 10 0 6 -10 10 -22 10 -29 1
-58 22 -58 44 0 17 -23 21 -96 17 -23 -1 -61 3 -84 9 -34 9 -48 9 -67 -1 -18
-10 -26 -10 -35 -1 -7 7 -36 12 -65 12 -30 0 -53 5 -53 10 0 6 -6 10 -12 8
-18 -3 -62 13 -70 26 -5 8 -11 7 -20 -2 -19 -19 -54 -14 -87 14 -17 14 -31 20
-31 14 0 -16 -138 -9 -148 7 -13 19 -53 26 -79 12 -20 -11 -26 -11 -34 1 -8
13 -10 13 -18 1 -7 -11 -23 -13 -68 -8 -65 7 -102 23 -130 54 -24 27 -103 41
-103 18 0 -9 -4 -13 -10 -10 -5 3 -10 16 -10 28 0 12 -7 30 -15 40 -7 11 -11
25 -9 32 3 7 -3 19 -13 27 -32 24 -40 48 -29 90 6 21 14 38 18 38 4 0 8 8 8
18 0 21 29 52 48 52 7 0 11 3 10 8 -5 23 44 114 64 120 10 2 18 8 18 12 0 4 9
10 21 13 11 3 23 15 26 26 3 11 15 27 28 35 14 9 25 30 30 53 4 21 11 43 17
50 5 7 7 40 2 82 -5 56 -10 72 -25 76 -11 4 -19 12 -19 19 0 7 -10 32 -22 57
-12 24 -23 59 -24 77 -2 18 -10 47 -18 64 -9 17 -16 38 -16 47 0 9 -13 25 -30
34 -16 10 -30 22 -30 28 0 24 -37 6 -48 -24 l-13 -32 -19 24 -20 23 0 -22 c0
-19 -2 -21 -16 -9 -13 10 -17 10 -25 -2 -5 -8 -9 -21 -9 -30 0 -8 -5 -20 -11
-26 -8 -8 -8 -17 0 -32 7 -12 9 -21 7 -21 -3 0 3 -20 14 -44 18 -42 18 -46 1
-100 -9 -31 -23 -62 -29 -68 -7 -7 -12 -18 -12 -26 0 -7 -4 -11 -9 -8 -5 3
-23 -10 -41 -30 -21 -24 -28 -39 -21 -44 11 -6 -61 -45 -85 -45 -15 0 -74 -57
-68 -66 3 -5 -9 -15 -26 -24 -17 -9 -29 -19 -26 -23 2 -4 -13 -6 -34 -4 -21 2
-41 -1 -44 -7 -4 -6 -16 -11 -27 -11 -10 0 -19 -4 -19 -8 0 -5 -16 -16 -37
-26 -27 -13 -38 -14 -44 -5 -4 8 -23 10 -53 7 -25 -3 -46 -2 -46 3 0 14 -30
10 -46 -6 -9 -8 -25 -15 -37 -15 -12 0 -29 -5 -37 -10 -12 -8 -8 -16 25 -51
23 -25 32 -39 22 -35 -10 3 -23 6 -28 6 -5 0 -9 9 -9 20 0 11 -7 20 -15 20 -8
0 -15 4 -15 9 0 5 -14 11 -31 15 -17 3 -28 10 -25 15 3 4 -4 19 -15 32 l-22
24 5 -33 c2 -17 1 -32 -4 -32 -12 0 -52 48 -60 73 -5 13 -6 5 -3 -20 4 -30 0
-46 -11 -57 -19 -20 -33 -20 -40 -1 -4 8 -10 15 -15 15 -12 0 -44 -32 -51 -52
-4 -8 -15 -18 -26 -20 -16 -4 -19 -2 -15 10 4 10 2 13 -6 8 -6 -4 -22 -1 -35
7 -25 17 -56 6 -56 -18 0 -22 -28 -18 -35 5 -7 22 -20 26 -30 10 -10 -16 -85
-13 -85 4 0 7 -13 19 -30 26 -16 7 -35 19 -41 27 -19 23 -128 73 -159 73 -15
0 -44 7 -63 15 -46 19 -118 19 -143 0 -10 -8 -29 -15 -42 -15 -12 0 -34 -7
-47 -16 -13 -9 -28 -13 -34 -10 -5 4 -12 -3 -16 -14 -3 -11 -13 -27 -22 -36
-9 -9 -18 -37 -21 -63 -4 -42 0 -54 27 -91 17 -24 31 -39 31 -35 0 5 6 0 14
-11 8 -10 18 -19 23 -19 27 0 65 -79 56 -115 -8 -29 5 -70 22 -70 8 0 15 -7
15 -16 0 -8 -5 -12 -10 -9 -6 4 -41 -19 -78 -50 -70 -60 -91 -85 -72 -85 6 0
8 -5 4 -11 -4 -8 -9 -7 -15 2 -8 12 -12 11 -22 -2 -7 -9 -22 -19 -34 -23 -12
-4 -24 -18 -28 -34 -3 -16 -20 -36 -40 -50 -19 -12 -35 -27 -35 -32 0 -6 -9
-10 -21 -10 -16 0 -19 -4 -14 -21 5 -14 3 -19 -4 -15 -22 14 -121 -56 -121
-86 0 -8 -12 -20 -27 -27 -15 -7 -33 -21 -41 -32 -7 -10 -21 -19 -31 -19 -9 0
-26 -8 -37 -18 -11 -10 -47 -25 -82 -32 -34 -8 -62 -19 -62 -26 0 -6 -8 -14
-17 -18 -44 -14 -75 -42 -92 -82 -10 -25 -17 -30 -35 -27 -20 4 -24 0 -30 -33
-5 -26 -4 -39 6 -46 10 -7 9 -10 -4 -19 -12 -6 -18 -22 -18 -44 0 -37 -19 -62
-54 -71 -28 -7 -57 -65 -44 -88 13 -24 31 -20 18 4 -8 15 -6 21 10 30 17 9 20
8 20 -14 0 -26 -47 -86 -67 -86 -7 0 -13 -4 -13 -9 0 -5 -9 -13 -20 -16 -11
-3 -20 -13 -20 -21 0 -7 -9 -19 -20 -26 -11 -7 -20 -18 -20 -25 0 -7 -9 -13
-19 -13 -11 0 -22 -4 -26 -10 -3 -5 -12 -7 -20 -4 -8 3 -25 -5 -39 -19 -13
-14 -38 -31 -55 -38 -20 -9 -31 -21 -31 -34 0 -10 -12 -30 -27 -42 -25 -22
-25 -24 -9 -42 17 -19 14 -71 -5 -71 -5 0 -9 -9 -9 -19 0 -11 -4 -22 -9 -25
-5 -3 -12 -23 -16 -43 -4 -21 -10 -42 -13 -48 -4 -5 -12 -25 -17 -44 -7 -25
-16 -35 -32 -36 -27 -2 -62 -32 -74 -62 -5 -13 -15 -23 -24 -23 -9 0 -18 -12
-21 -30 -6 -26 -11 -30 -41 -30 -21 0 -33 -5 -32 -12 3 -29 -3 -38 -36 -54
-19 -9 -35 -20 -35 -25 0 -5 -12 -9 -27 -8 -16 0 -22 3 -15 6 14 6 16 39 2 48
-5 3 -10 1 -10 -4 0 -6 -18 -11 -40 -11 -34 0 -40 3 -40 21 0 14 -5 19 -14 16
-7 -3 -24 2 -37 11 -16 11 -24 12 -27 4 -2 -7 -23 -12 -48 -12 -49 0 -92 -18
-133 -56 -19 -17 -37 -24 -67 -24 -26 0 -44 -5 -47 -13 -3 -9 -31 -16 -78 -20
-41 -3 -75 -11 -77 -17 -2 -6 -10 -17 -18 -24 -18 -19 -18 -66 0 -66 8 0 16
-5 18 -12 3 -8 32 -11 96 -10 56 1 92 -2 92 -8 0 -5 -4 -10 -10 -10 -5 0 -10
-13 -10 -30 0 -23 4 -30 20 -30 13 0 20 -7 20 -20 0 -11 7 -20 15 -20 21 0 31
30 15 40 -15 9 -6 40 11 40 6 0 13 -8 16 -19 2 -10 16 -24 30 -30 32 -15 25
-36 -13 -36 -22 0 -28 -4 -26 -17 2 -14 -4 -18 -31 -18 -27 0 -36 -5 -40 -21
-5 -17 -11 -20 -31 -17 -14 3 -27 2 -28 -2 -5 -11 -78 -20 -78 -9 0 5 -18 9
-40 9 -31 0 -40 -4 -40 -17 0 -10 -9 -29 -20 -43 -11 -14 -20 -33 -20 -42 0
-14 -9 -18 -40 -18 -45 0 -49 8 -20 35 11 10 20 29 20 42 0 20 -5 23 -41 23
l-42 0 7 49 c7 54 1 81 -20 81 -8 0 -14 4 -14 10 0 14 -52 37 -73 32 -10 -2
-24 4 -31 14 -11 14 -21 16 -57 9 -24 -4 -64 -8 -89 -10 -49 -2 -120 -24 -120
-37 0 -4 -16 -8 -36 -8 -43 0 -94 -33 -94 -61 0 -27 -28 -24 -33 4 -3 21 -4
21 -15 -6 -17 -41 -16 -97 3 -97 20 0 19 -10 -2 -26 -17 -13 -17 -15 0 -28 10
-7 17 -27 17 -45 0 -30 2 -31 40 -31 29 0 40 -4 40 -15 0 -10 10 -15 30 -15
23 0 30 5 30 19 0 11 5 23 10 26 6 4 10 -5 10 -19 0 -16 6 -26 15 -26 18 0 19
12 3 28 -14 14 13 27 38 18 15 -6 15 -8 2 -24 -9 -9 -18 -29 -22 -45 -3 -15
-13 -27 -21 -27 -8 0 -15 -9 -15 -19 0 -17 4 -18 37 -10 21 4 40 5 43 3 6 -7
-45 -50 -80 -67 -29 -14 -41 -57 -16 -57 9 0 16 -8 16 -20 0 -12 7 -20 16 -20
14 0 15 -2 3 -17 -13 -15 -14 -15 -17 0 -2 10 -13 17 -28 17 -31 0 -31 -15 0
-35 21 -14 24 -23 22 -68 -2 -29 -1 -35 1 -15 5 45 13 47 50 11 l28 -28 3 28
c3 23 8 27 33 27 27 0 29 -3 29 -36 0 -35 25 -73 38 -59 4 4 1 10 -5 12 -7 3
-13 11 -13 19 0 19 67 19 86 -1 18 -17 67 -20 95 -5 13 7 25 8 37 1 9 -6 11
-11 5 -11 -18 0 -16 -40 2 -40 8 0 15 9 15 20 0 17 7 20 40 20 29 0 40 -4 40
-15 0 -8 6 -15 14 -15 7 0 19 7 26 15 15 18 37 19 43 3 4 -10 6 -10 6 0 1 6
10 12 21 12 16 0 20 -7 20 -38 0 -21 7 -47 15 -59 9 -12 24 -85 36 -170 33
-240 47 -326 58 -363 37 -126 61 -231 61 -269 0 -25 6 -70 14 -100 27 -104 37
-156 37 -179 -1 -12 4 -22 9 -22 17 0 11 -18 -15 -46 -14 -15 -25 -35 -25 -44
0 -10 -7 -23 -15 -30 -8 -7 -15 -19 -15 -26 0 -8 -10 -14 -25 -14 -19 0 -25
-5 -25 -21 0 -19 -4 -20 -40 -14 -32 5 -40 4 -40 -8 0 -9 6 -17 12 -20 8 -2 9
-8 4 -13 -5 -5 -11 -4 -13 4 -7 19 -23 14 -23 -7 0 -23 -58 -71 -77 -64 -13 5
-68 -17 -111 -45 -21 -14 -22 -16 -6 -33 17 -18 15 -20 -18 -23 -16 -1 -37
-35 -38 -58 0 -10 -7 -18 -15 -18 -19 0 -19 -4 0 -40 14 -28 14 -32 -10 -70
-32 -51 -32 -61 6 -89 31 -23 31 -25 26 -87 -3 -47 -1 -67 9 -75 8 -6 14 -19
14 -27 0 -13 3 -12 14 4 12 15 17 17 28 6 11 -11 10 -15 -2 -23 -13 -8 -11
-12 10 -29 14 -10 33 -26 43 -34 9 -9 24 -16 32 -16 11 0 15 -11 15 -40 0 -43
14 -52 36 -22 12 16 15 15 38 -13 14 -16 25 -42 26 -57 0 -18 5 -28 15 -28 8
0 15 -4 15 -10 0 -5 12 -17 26 -27 21 -13 30 -14 45 -5 14 9 25 8 49 -6 l32
-17 -6 -75 c-6 -78 -12 -111 -26 -145 -5 -11 -16 -54 -25 -95 -26 -118 -46
-179 -83 -260 -62 -134 -100 -256 -118 -385 -9 -66 -42 -175 -54 -175 -5 0
-27 -19 -49 -43 -71 -73 -86 -118 -136 -397 -8 -47 -18 -105 -22 -130 -3 -25
-19 -67 -35 -94 -16 -27 -43 -76 -60 -109 -17 -35 -54 -84 -88 -116 -72 -69
-127 -173 -159 -296 -12 -50 -26 -106 -32 -126 -5 -20 -9 -39 -9 -43 0 -3
2867 -6 6370 -6 l6370 0 0 1840 c0 1833 0 1840 -20 1840 -26 0 -28 -47 -2 -67
15 -13 12 -14 -30 -9 -38 4 -48 3 -48 -9 0 -11 -11 -15 -40 -15 -22 0 -40 -4
-40 -9 0 -12 -91 -19 -147 -10 -40 6 -51 4 -69 -13 -17 -15 -23 -16 -26 -6 -4
11 -8 11 -21 0 -14 -12 -20 -11 -39 2 -12 9 -28 16 -35 16 -17 0 -44 -30 -37
-42 4 -6 -1 -8 -12 -6 -11 2 -18 10 -17 16 5 19 -11 14 -25 -9 -10 -16 -17
-18 -25 -10 -15 15 -27 14 -27 -4 0 -8 -6 -15 -14 -15 -7 0 -19 7 -26 15 -16
20 -40 19 -40 -1 0 -11 -6 -14 -21 -9 -14 5 -27 1 -38 -12 -14 -14 -28 -18
-59 -15 -23 2 -42 8 -42 13 0 4 -13 3 -30 -2 -16 -6 -30 -15 -30 -21 0 -32
-92 -55 -103 -25 -3 9 -12 7 -36 -6 -18 -11 -35 -17 -38 -14 -3 3 -17 1 -31
-4 -14 -5 -90 -12 -170 -15 -119 -4 -148 -2 -168 10 -23 16 -79 13 -89 -5 -5
-8 31 -33 49 -34 5 0 11 -6 14 -12 2 -9 -10 -13 -42 -13 -25 0 -46 5 -46 10 0
15 -47 12 -53 -4 -4 -10 -19 -12 -56 -8 l-51 5 0 -31 c0 -21 6 -32 18 -35 9
-3 -3 -3 -27 0 -30 4 -46 2 -53 -8 -7 -11 -11 -11 -15 -1 -9 23 -59 14 -73
-13 -12 -22 -20 -25 -66 -25 -52 0 -79 -15 -54 -30 9 -6 9 -12 0 -29 -9 -18
-14 -20 -25 -11 -11 9 -18 9 -29 -3 -8 -8 -13 -17 -10 -20 11 -10 -31 -47 -53
-47 -23 0 -75 -42 -86 -70 -4 -12 -6 -11 -6 3 -1 26 -18 20 -27 -10 -4 -16 -7
-31 -6 -35 3 -13 -27 -29 -77 -42 -28 -7 -51 -9 -51 -5 0 5 -18 9 -40 9 -22 0
-40 -4 -40 -8 0 -5 -18 -15 -40 -22 -27 -9 -40 -19 -40 -32 0 -10 -7 -18 -15
-18 -11 0 -13 8 -8 32 5 26 3 30 -10 25 -21 -8 -25 9 -29 103 -2 41 -6 77 -9
80 -6 6 -46 135 -53 170 -4 24 -11 43 -42 115 -7 17 -22 57 -35 90 -21 58 -55
116 -71 123 -4 2 -8 8 -8 14 0 39 -228 308 -261 308 -11 0 -19 6 -19 13 -1 13
-64 55 -125 81 -22 9 -47 21 -55 27 -8 5 -27 15 -42 22 -16 6 -28 15 -28 19 0
4 -23 10 -51 14 -28 4 -53 13 -56 20 -3 8 -14 14 -24 14 -10 0 -19 3 -19 8 0
7 -135 75 -155 78 -77 11 -126 28 -136 45 -6 12 -17 18 -24 15 -16 -6 -85 14
-85 26 0 4 -19 9 -42 9 -34 2 -37 3 -13 6 27 4 24 6 -28 24 -31 11 -70 27 -87
37 -27 17 -28 20 -15 38 12 15 16 16 24 5 5 -8 14 -10 21 -6 10 6 9 11 -4 21
-16 11 -12 13 28 19 25 4 46 11 46 15 0 4 14 6 31 5 22 -2 28 0 20 8 -6 6 -11
17 -11 25 0 8 -7 29 -16 48 -18 38 -7 64 27 64 24 0 35 42 22 85 -9 29 -8 34
8 38 13 3 19 14 19 32 0 37 17 65 39 65 20 0 31 19 31 52 0 11 8 22 20 25 25
7 26 40 3 46 -16 4 -16 5 -1 6 9 0 23 -6 32 -14 9 -10 17 -11 21 -5 4 7 14 5
28 -5 27 -19 37 -19 37 0 0 12 4 11 20 -5 11 -11 25 -20 30 -20 17 0 11 19
-12 38 -11 9 -38 32 -58 50 -21 17 -40 32 -44 32 -13 0 -46 41 -41 50 4 6 28
10 56 10 27 0 49 5 49 10 0 6 7 10 15 10 8 0 15 6 15 14 0 7 -7 19 -15 26 -13
11 -15 8 -15 -14 0 -14 -6 -26 -12 -26 -18 0 -17 71 0 89 8 8 12 28 10 47 -2
19 0 30 6 27 5 -4 7 10 4 33 -4 33 -1 44 23 69 33 34 35 42 14 72 -13 18 -13
26 -3 43 7 11 21 20 30 20 10 0 27 9 38 20 11 11 27 20 35 20 8 0 15 5 15 10
0 6 18 10 40 10 22 0 40 5 40 10 0 6 18 10 40 10 26 0 40 -5 40 -13 0 -8 19
-13 58 -14 83 -2 119 -9 203 -36 41 -14 108 -35 149 -47 41 -12 95 -29 119
-36 57 -18 98 -18 108 0 6 10 32 15 93 17 80 2 92 -1 205 -44 66 -26 128 -51
137 -57 26 -15 36 -12 34 7 -1 15 10 19 64 24 46 4 70 2 80 -7 9 -7 25 -11 35
-8 20 5 229 -15 307 -30 122 -22 150 -26 157 -21 5 3 11 -1 13 -7 3 -9 35 -13
109 -14 75 -1 118 -6 154 -20 28 -11 52 -22 55 -25 3 -3 20 -11 38 -19 27 -11
35 -11 42 -1 8 15 129 5 295 -24 50 -9 104 -17 120 -19 37 -4 148 -25 195 -36
19 -4 56 -13 83 -19 26 -6 69 -11 95 -12 26 0 70 -5 97 -10 45 -9 154 -24 245
-33 19 -2 47 -7 63 -11 l27 -7 0 7061 0 7061 -3120 0 -3120 0 0 -39z m2480
-7232 c0 -5 -4 -9 -10 -9 -5 0 -10 7 -10 16 0 8 5 12 10 9 6 -3 10 -10 10 -16z
m-36 -74 c4 -10 -1 -15 -16 -15 -17 0 -18 2 -8 15 7 8 14 15 15 15 2 0 5 -7 9
-15z m183 -857 c-3 -8 -6 -5 -6 6 -1 11 2 17 5 13 3 -3 4 -12 1 -19z m433
-2473 c6 -8 9 -18 6 -24 -10 -16 -46 0 -46 20 0 23 23 25 40 4z m-43 -97 c-2
-13 -4 -5 -4 17 -1 22 1 32 4 23 2 -10 2 -28 0 -40z m63 -37 c0 -12 -29 -23
-41 -15 -18 10 -9 24 16 24 14 0 25 -4 25 -9z m-540 -26 c0 -11 -11 -15 -40
-15 -29 0 -40 4 -40 15 0 11 11 15 40 15 29 0 40 -4 40 -15z m2208 -100 c45
-14 56 -23 68 -51 8 -18 14 -42 14 -52 0 -10 11 -29 25 -42 20 -19 25 -33 25
-72 0 -80 -39 -210 -82 -269 -14 -20 -3 -69 16 -69 12 0 36 -61 36 -94 0 -9 4
-16 8 -16 14 0 8 -133 -6 -138 -7 -2 -12 -11 -12 -20 0 -24 -30 -52 -57 -52
-13 0 -26 -6 -29 -13 -3 -9 -23 -14 -56 -15 -27 0 -62 -4 -77 -7 -21 -4 -39 3
-81 33 -71 51 -91 98 -79 192 13 107 -6 220 -49 288 -53 83 -14 267 71 338 55
46 159 86 202 78 6 -2 34 -10 63 -19z m-1968 -10 c0 -8 -7 -15 -15 -15 -16 0
-20 12 -8 23 11 12 23 8 23 -8z m240 -150 c0 -15 6 -25 14 -25 8 0 16 -10 18
-22 2 -18 10 -23 36 -24 39 0 62 -28 55 -66 -4 -23 -12 -28 -52 -34 -25 -5
-39 -10 -29 -12 31 -6 27 -29 -8 -45 -33 -16 -34 -16 -34 3 0 11 -7 20 -15 20
-8 0 -15 5 -15 10 0 6 -11 10 -25 10 -14 0 -25 -4 -25 -10 0 -5 7 -10 15 -10
8 0 15 -9 15 -20 0 -11 -7 -20 -15 -20 -8 0 -15 6 -15 14 0 16 -82 26 -221 26
-83 0 -99 3 -99 16 0 13 10 14 68 9 l67 -7 15 38 c8 21 14 42 13 46 -4 10 21
11 31 1 3 -4 16 -8 27 -10 18 -3 20 2 18 44 -4 87 2 93 87 93 72 0 74 -1 74
-25z m-320 -140 c0 -9 -6 -12 -15 -9 -8 4 -12 10 -9 15 8 14 24 10 24 -6z
m-1444 -42 c-10 -10 -19 5 -10 18 6 11 8 11 12 0 2 -7 1 -15 -2 -18z m241 21
c-3 -3 -12 -4 -19 -1 -8 3 -5 6 6 6 11 1 17 -2 13 -5z m1123 -64 c0 -5 -18
-10 -40 -10 -22 0 -40 5 -40 10 0 6 18 10 40 10 22 0 40 -4 40 -10z m410 -30
c12 -8 9 -10 -12 -10 -16 0 -28 5 -28 10 0 13 20 13 40 0z m-700 -14 c0 -2 -7
-9 -15 -16 -12 -10 -15 -10 -15 4 0 9 7 16 15 16 8 0 15 -2 15 -4z m640 -36
c0 -11 -7 -20 -15 -20 -8 0 -15 9 -15 20 0 11 7 20 15 20 8 0 15 -9 15 -20z
m-66 -25 c4 -11 -1 -15 -19 -15 -16 0 -25 6 -25 15 0 8 9 15 19 15 10 0 21 -7
25 -15z m-124 -55 c0 -22 -4 -40 -10 -40 -5 0 -10 18 -10 40 0 22 5 40 10 40
6 0 10 -18 10 -40z m208 28 c-2 -6 -14 -18 -26 -26 -21 -14 -22 -13 -22 12 0
21 5 26 26 26 15 0 24 -5 22 -12z m-1448 -72 c0 -2 -9 -6 -20 -9 -11 -3 -20
-1 -20 4 0 5 9 9 20 9 11 0 20 -2 20 -4z m440 -11 c0 -8 -2 -15 -4 -15 -2 0
-6 7 -10 15 -3 8 -1 15 4 15 6 0 10 -7 10 -15z m880 -89 c0 -23 3 -24 93 -28
66 -3 96 -1 108 9 23 19 39 16 39 -7 0 -12 -7 -20 -16 -20 -14 0 -14 -3 -4
-15 11 -13 15 -13 22 -3 6 9 7 5 3 -10 -4 -13 -2 -29 4 -36 6 -8 7 -23 2 -42
-9 -27 -9 -27 -10 -5 -2 45 -61 86 -61 42 0 -11 -6 -22 -12 -24 -10 -4 -9 -8
2 -16 13 -10 13 -12 0 -21 -20 -13 -90 -13 -90 0 0 6 -33 10 -80 10 -64 0 -80
-3 -80 -15 0 -11 -11 -15 -40 -15 -33 0 -40 3 -40 20 0 17 7 20 41 20 30 0 40
4 36 13 -4 10 3 12 24 9 28 -4 29 -3 29 37 0 32 4 41 18 42 10 0 12 3 5 6 -15
6 -18 73 -3 73 6 0 10 -11 10 -24z m-1200 -16 c0 -5 -4 -10 -10 -10 -5 0 -10
5 -10 10 0 6 5 10 10 10 6 0 10 -4 10 -10z m45 -10 c-3 -5 -11 -10 -16 -10 -6
0 -7 5 -4 10 3 6 11 10 16 10 6 0 7 -4 4 -10z m895 -100 c0 -5 -9 -10 -20 -10
-11 0 -20 5 -20 10 0 6 9 10 20 10 11 0 20 -4 20 -10z m-60 -20 c0 -5 -2 -10
-4 -10 -3 0 -8 5 -11 10 -3 6 -1 10 4 10 6 0 11 -4 11 -10z m-80 -60 c0 -5 -5
-10 -11 -10 -5 0 -7 5 -4 10 3 6 8 10 11 10 2 0 4 -4 4 -10z m55 0 c3 -5 1
-10 -4 -10 -6 0 -11 5 -11 10 0 6 2 10 4 10 3 0 8 -4 11 -10z m2856 -900 c19
-6 46 -21 59 -35 13 -14 29 -25 37 -25 7 0 12 -4 11 -9 -2 -5 10 -20 26 -34
28 -24 30 -30 30 -104 1 -78 1 -78 -26 -81 -34 -4 -35 -12 -3 -50 26 -31 32
-52 15 -52 -20 0 -10 -59 15 -88 14 -17 25 -35 25 -40 0 -6 8 -17 18 -24 9 -7
23 -22 30 -33 43 -68 56 -82 94 -100 29 -14 42 -26 40 -38 -2 -11 4 -17 17
-17 21 0 61 -55 61 -84 0 -9 6 -16 14 -16 28 0 46 -30 46 -76 0 -39 3 -44 22
-44 17 0 19 3 10 12 -7 7 -12 17 -12 24 0 20 32 26 49 9 15 -15 13 -18 -12
-41 -16 -13 -33 -22 -38 -19 -5 3 -17 2 -27 -4 -33 -18 -153 -14 -232 8 -41
11 -77 21 -80 21 -3 0 12 -16 33 -35 49 -45 46 -66 -13 -81 -25 -7 -67 -21
-93 -33 -27 -12 -56 -21 -66 -21 -9 0 -22 -5 -28 -11 -21 -21 -185 -23 -280
-4 -117 24 -199 63 -286 139 -83 71 -120 96 -142 96 -9 0 -38 11 -65 25 -27
14 -56 25 -65 25 -8 0 -15 5 -15 10 0 6 -13 10 -29 10 -16 0 -36 7 -45 15 -8
8 -23 15 -33 15 -10 0 -27 7 -37 15 -11 8 -34 15 -50 16 -40 0 -119 32 -125
50 -2 8 -13 20 -23 28 -12 8 -18 21 -15 32 3 11 0 19 -5 19 -6 0 -5 6 2 15 7
8 21 15 32 15 10 0 31 12 45 26 24 24 30 26 87 19 34 -3 77 -8 96 -9 106 -7
249 -40 262 -60 5 -6 8 -1 8 12 0 14 -8 26 -22 32 -18 7 -19 9 -5 9 18 1 25
21 6 21 -5 0 -8 4 -4 10 3 5 12 7 20 3 20 -7 45 15 38 32 -3 9 6 19 24 27 40
18 113 96 134 144 10 23 30 46 44 52 29 13 32 30 8 40 -13 5 -7 9 22 13 40 5
40 5 14 16 -36 15 -41 44 -19 106 15 43 24 54 52 64 18 6 51 21 73 32 32 17
58 21 140 21 55 0 116 -5 136 -10z m-1231 -620 c0 -5 -5 -10 -11 -10 -5 0 -7
5 -4 10 3 6 8 10 11 10 2 0 4 -4 4 -10z m-10160 -318 c0 -5 -6 -16 -13 -27
-10 -12 -16 -14 -21 -7 -4 7 -1 18 6 26 14 17 28 20 28 8z m-80 -597 c0 -28
-24 -34 -34 -9 -10 26 -7 34 14 34 15 0 20 -7 20 -25z m8400 -280 c0 -8 -7
-15 -16 -15 -14 0 -14 3 -4 15 7 8 14 15 16 15 2 0 4 -7 4 -15z m3040 -1225
c0 -5 -4 -10 -10 -10 -5 0 -10 5 -10 10 0 6 5 10 10 10 6 0 10 -4 10 -10z
m-11226 -85 c-4 -8 -10 -15 -14 -15 -4 0 -10 7 -14 15 -4 10 1 15 14 15 13 0
18 -5 14 -15z m-119 -375 c3 -5 1 -10 -4 -10 -6 0 -11 5 -11 10 0 6 2 10 4 10
3 0 8 -4 11 -10z"/>
<path d="M15930 8069 c0 -5 5 -7 10 -4 6 3 10 8 10 11 0 2 -4 4 -10 4 -5 0
-10 -5 -10 -11z"/>
<path d="M15900 7430 c0 -5 4 -10 9 -10 6 0 13 5 16 10 3 6 -1 10 -9 10 -9 0
-16 -4 -16 -10z"/>
<path d="M2780 14435 c0 -13 8 -16 38 -13 20 2 37 8 37 13 0 6 -17 11 -37 13
-30 3 -38 0 -38 -13z"/>
<path d="M3827 13783 c-15 -14 -6 -23 23 -23 22 0 28 4 24 15 -6 15 -35 20
-47 8z"/>
<path d="M3908 13763 c7 -3 16 -2 19 1 4 3 -2 6 -13 5 -11 0 -14 -3 -6 -6z"/>
<path d="M3838 13493 c12 -2 32 -2 45 0 12 2 2 4 -23 4 -25 0 -35 -2 -22 -4z"/>
<path d="M4120 13320 c0 -22 5 -40 10 -40 6 0 10 -18 10 -40 0 -22 5 -40 10
-40 6 0 10 18 10 40 l0 40 40 0 c22 0 40 5 40 10 0 6 -22 10 -50 10 -49 0 -50
1 -50 30 0 17 -4 30 -10 30 -5 0 -10 -18 -10 -40z"/>
<path d="M3982 13248 c1 -51 2 -51 5 -10 4 39 6 42 34 42 26 0 29 -3 29 -32 0
-46 11 -79 23 -75 18 6 20 27 3 27 -12 0 -16 11 -16 50 l0 50 -40 0 -40 0 2
-52z"/>
<path d="M3980 13140 c0 -11 7 -20 15 -20 8 0 15 9 15 20 0 11 -7 20 -15 20
-8 0 -15 -9 -15 -20z"/>
<path d="M3260 13104 c0 -17 22 -14 28 4 2 7 -3 12 -12 12 -9 0 -16 -7 -16
-16z"/>
<path d="M3765 12250 c-3 -5 1 -10 10 -10 9 0 13 5 10 10 -3 6 -8 10 -10 10
-2 0 -7 -4 -10 -10z"/>
<path d="M3740 12176 c0 -9 5 -16 10 -16 6 0 10 4 10 9 0 6 -4 13 -10 16 -5 3
-10 -1 -10 -9z"/>
<path d="M15295 11850 c-3 -5 1 -10 9 -10 9 0 16 5 16 10 0 6 -4 10 -9 10 -6
0 -13 -4 -16 -10z"/>
<path d="M6640 11430 c0 -20 -49 -40 -98 -40 -13 0 -44 -5 -70 -12 -37 -9 -42
-13 -26 -19 10 -4 -46 -6 -126 -5 -81 2 -154 8 -165 14 -114 63 -172 73 -204
36 -9 -11 -29 -26 -46 -34 -16 -8 -31 -15 -33 -16 -6 -3 32 -74 40 -74 16 0 8
-80 -12 -115 -11 -20 -20 -42 -20 -50 0 -8 -9 -19 -20 -25 -11 -6 -23 -22 -26
-36 -4 -14 -9 -22 -12 -19 -8 8 -32 -53 -32 -82 0 -13 -5 -33 -10 -44 -20 -36
4 -59 61 -59 28 0 59 5 70 11 30 15 189 25 189 10 0 -10 86 -151 110 -178 5
-7 10 -17 10 -22 0 -6 18 -23 40 -37 22 -15 40 -32 40 -40 0 -15 51 -28 98
-25 19 1 31 -2 28 -7 -5 -8 40 -28 94 -43 8 -2 34 -16 57 -31 23 -16 47 -28
53 -28 6 0 30 -9 52 -20 23 -11 47 -20 53 -20 6 0 30 -9 53 -20 22 -11 50 -20
61 -20 11 0 31 -12 44 -26 13 -14 31 -26 39 -28 8 -1 27 -9 41 -19 14 -9 32
-18 39 -19 7 -2 16 -7 20 -13 5 -6 18 -6 38 2 23 9 30 9 30 -1 0 -12 40 -36
61 -36 6 0 17 -6 24 -14 10 -9 32 -12 75 -9 57 4 64 2 90 -22 19 -19 34 -25
48 -21 13 4 22 1 26 -9 3 -8 11 -15 19 -15 7 0 21 -15 32 -32 15 -25 20 -29
23 -16 3 15 6 15 38 -4 29 -17 47 -20 117 -16 45 3 65 3 45 1 -23 -3 -38 -9
-38 -18 0 -18 88 -25 120 -10 14 7 64 16 113 20 48 4 87 11 87 16 0 5 36 9 79
9 51 0 81 4 83 11 5 14 78 3 78 -11 0 -4 9 -6 21 -3 11 3 31 0 44 -7 13 -7 31
-10 39 -7 9 4 37 -5 63 -19 29 -15 57 -23 70 -19 17 4 30 -5 62 -42 26 -31 37
-52 32 -61 -4 -7 -1 -37 6 -65 8 -29 14 -83 14 -122 0 -78 13 -141 35 -162 8
-8 14 -28 14 -44 0 -16 4 -29 9 -29 11 0 43 -78 37 -89 -11 -18 15 -33 60 -34
47 -2 49 -1 52 26 2 17 17 38 42 58 35 28 37 33 24 46 -22 22 -13 49 15 45 13
-1 35 5 49 14 14 9 35 17 45 18 30 2 61 50 60 93 -1 26 5 41 18 51 26 18 25
52 -2 52 -19 0 -21 4 -15 30 5 25 0 35 -26 60 -30 29 -31 32 -20 68 8 24 8 38
2 40 -6 2 -10 21 -10 43 0 21 -4 39 -10 39 -5 0 -10 7 -10 15 0 8 -5 15 -11
15 -5 0 -8 4 -4 9 3 5 -3 12 -13 15 -11 4 -24 18 -30 31 -6 14 -18 25 -25 25
-15 0 -27 48 -27 108 0 19 -9 45 -19 59 -11 13 -23 44 -27 69 -3 24 -10 47
-15 50 -5 3 -9 14 -9 25 0 21 -54 81 -82 91 -20 8 -78 91 -78 112 0 9 -5 16
-10 16 -15 0 -60 50 -60 66 0 13 -16 18 -49 16 -8 0 -21 6 -29 14 -8 9 -20 13
-28 10 -7 -3 -18 2 -24 10 -7 8 -19 14 -27 14 -7 0 -16 7 -19 15 -4 8 -12 15
-20 15 -8 0 -14 5 -14 10 0 6 -12 16 -27 22 -16 7 -39 22 -53 34 -14 12 -42
27 -62 34 -21 6 -38 16 -38 21 0 5 -22 9 -50 9 -43 0 -53 4 -80 34 -22 24 -37
32 -54 29 -17 -4 -29 3 -45 23 -21 26 -22 27 -36 8 -13 -18 -15 -18 -32 -1
-16 16 -16 17 0 17 9 0 17 5 17 11 0 6 -9 9 -20 6 -10 -3 -21 0 -24 7 -2 6 -7
-4 -11 -21 -5 -23 -13 -33 -26 -33 -11 0 -19 7 -19 15 0 10 -10 15 -33 15 -18
0 -38 5 -45 12 -6 6 -18 13 -25 14 -22 3 -107 51 -101 56 2 3 -9 11 -26 18
-17 7 -45 30 -62 51 -18 22 -40 39 -50 39 -11 0 -23 11 -28 25 -11 28 -20 31
-38 13 -9 -9 -12 -9 -12 0 0 15 -36 16 -46 1 -4 -7 -20 -8 -43 -4 -20 3 -62 9
-93 12 -32 2 -58 8 -58 13 0 4 -26 8 -57 8 -85 1 -131 8 -147 21 -8 6 -43 12
-77 12 -99 0 -112 2 -131 21 -24 24 -48 23 -48 -2z m1020 -481 c0 -6 -11 -24
-25 -40 -32 -38 -47 -93 -34 -126 12 -31 12 -43 -1 -43 -5 0 -14 17 -21 38
-10 35 -8 44 23 110 18 39 39 71 46 72 6 0 12 -5 12 -11z m-185 -355 c18 -18
14 -35 -21 -106 -20 -40 -23 -56 -18 -105 6 -53 4 -62 -17 -87 l-24 -28 -27
22 c-59 46 -57 156 4 242 32 45 65 78 78 78 5 0 16 -7 25 -16z m732 -189 c-4
-8 1 -35 10 -60 18 -54 11 -70 -11 -26 -16 31 -21 82 -9 94 11 12 15 8 10 -8z
m-390 -321 c-3 -3 -12 -4 -19 -1 -8 3 -5 6 6 6 11 1 17 -2 13 -5z m903 -573
c0 -6 -4 -13 -10 -16 -5 -3 -10 1 -10 9 0 9 5 16 10 16 6 0 10 -4 10 -9z"/>
<path d="M13946 11275 c-21 -7 -42 -18 -45 -23 -3 -5 -18 -12 -33 -15 -15 -4
-33 -14 -42 -22 -8 -8 -23 -15 -34 -15 -11 0 -22 -8 -25 -19 -3 -13 -24 -23
-73 -36 -38 -11 -72 -23 -76 -29 -3 -5 -23 -9 -44 -8 -27 1 -52 -7 -86 -29
-29 -19 -55 -29 -64 -25 -9 4 -26 0 -38 -7 -12 -8 -41 -17 -65 -21 -24 -4 -55
-15 -68 -26 -15 -12 -39 -19 -60 -18 -19 1 -38 -3 -41 -9 -4 -6 -24 -18 -45
-27 -21 -8 -45 -22 -54 -31 -8 -9 -22 -14 -30 -11 -18 7 -113 -13 -139 -30
-11 -8 -55 -16 -97 -18 -58 -3 -84 -9 -107 -26 -18 -13 -38 -19 -49 -15 -20 6
-91 -23 -91 -37 0 -4 -21 -8 -47 -8 -50 0 -126 -24 -154 -47 -13 -11 -28 -12
-68 -5 -28 5 -51 6 -51 2 0 -4 -18 -13 -40 -20 -22 -7 -40 -16 -40 -20 0 -4
-27 -16 -61 -26 -54 -17 -65 -25 -104 -79 -43 -60 -78 -95 -94 -95 -5 0 -18
-22 -29 -49 -22 -50 -57 -81 -92 -81 -13 0 -20 -7 -20 -20 0 -13 -7 -20 -20
-20 -16 0 -20 -7 -20 -31 0 -21 -6 -32 -18 -36 -19 -5 -44 -64 -43 -102 1 -12
-2 -27 -5 -33 -13 -21 -6 -204 10 -257 9 -30 16 -85 16 -123 0 -56 3 -68 16
-68 9 0 18 -8 20 -17 3 -10 23 -26 45 -35 23 -10 43 -26 46 -36 6 -23 50 -42
147 -66 l70 -16 41 40 c22 22 45 40 50 40 16 0 66 68 76 103 5 18 7 62 3 100
-5 57 -3 67 10 67 9 0 16 5 16 10 0 6 5 10 10 10 6 0 10 -9 10 -19 0 -10 6
-21 13 -24 20 -8 67 4 68 17 7 90 -12 166 -41 166 -15 0 -40 -42 -40 -66 0 -7
-8 -14 -17 -16 -30 -6 -63 4 -63 18 0 8 -7 14 -15 14 -21 0 -19 22 5 43 15 13
39 17 95 17 l75 0 0 39 0 38 55 6 c40 4 65 14 93 35 29 23 60 34 147 51 61 12
136 26 167 32 32 7 62 17 68 24 6 8 6 31 -2 69 -12 57 -12 59 22 123 35 66 65
91 94 80 21 -8 20 -53 0 -92 -24 -46 -17 -145 9 -145 26 0 205 44 242 60 41
17 112 39 165 50 30 7 64 18 75 25 11 6 38 15 60 19 46 9 185 54 200 66 6 4
24 10 40 14 17 4 44 13 60 20 17 8 64 24 105 37 41 13 84 29 95 35 11 6 39 17
63 24 23 7 42 17 42 22 0 4 5 8 10 8 6 0 28 11 50 25 22 14 48 25 58 25 10 0
36 9 57 20 61 31 174 62 202 55 33 -8 63 3 63 23 0 10 9 23 20 30 22 13 28 66
9 78 -6 3 -9 15 -6 25 3 11 -3 36 -13 57 -19 40 -46 53 -132 67 -21 3 -38 10
-38 15 0 6 -27 10 -59 10 -70 0 -92 7 -84 26 3 8 0 14 -7 14 -8 0 -10 8 -6 23
4 16 0 26 -14 34 -10 7 -20 24 -22 39 -3 30 -11 36 -87 58 -65 19 -103 20
-155 1z m-1681 -915 c4 -6 -3 -34 -14 -64 -16 -44 -18 -61 -10 -91 10 -36 9
-50 -6 -87 -5 -13 -2 -18 9 -18 9 0 16 -4 16 -10 0 -17 -28 -11 -39 8 -6 9
-11 11 -11 5 0 -17 -20 -17 -20 0 0 7 -9 21 -21 31 -18 15 -21 26 -17 80 2 42
10 71 23 88 11 14 27 35 35 47 15 22 45 28 55 11z m-95 -260 c0 -5 -4 -10 -10
-10 -5 0 -10 5 -10 10 0 6 5 10 10 10 6 0 10 -4 10 -10z m-50 -60 c0 -5 -4
-10 -10 -10 -5 0 -10 5 -10 10 0 6 5 10 10 10 6 0 10 -4 10 -10z"/>
<path d="M12382 9940 c0 -14 2 -19 5 -12 2 6 2 18 0 25 -3 6 -5 1 -5 -13z"/>
<path d="M10834 9305 c-21 -20 -35 -25 -58 -20 -22 3 -25 3 -11 -3 19 -9 19
-9 -3 -21 -12 -6 -25 -23 -28 -36 -3 -14 -12 -25 -20 -25 -8 0 -14 -4 -14 -10
0 -25 -51 9 -62 41 -4 12 -7 12 -21 1 -17 -14 -41 -6 -69 22 -20 19 -55 29
-63 16 -3 -5 -20 -10 -36 -10 -28 0 -29 -2 -27 -34 1 -22 -5 -42 -15 -54 -9
-10 -17 -24 -17 -31 0 -7 -5 -9 -11 -6 -12 8 -79 -61 -79 -81 0 -8 -4 -14 -10
-14 -5 0 -10 6 -10 14 0 7 -9 16 -20 19 -12 3 -20 14 -20 26 0 12 -4 21 -10
21 -5 0 -10 6 -10 13 0 21 -46 42 -63 29 -10 -9 -17 -8 -26 1 -17 17 -43 -18
-35 -48 7 -30 -23 -42 -41 -18 -13 17 -15 17 -37 -4 -30 -28 -50 -29 -73 -3
-10 11 -24 20 -32 20 -8 0 -12 4 -9 9 4 5 -3 7 -15 4 -12 -4 -25 0 -29 8 -5 7
-13 10 -17 5 -4 -5 -2 -11 5 -13 8 -3 12 -30 12 -84 l0 -79 60 4 c58 3 60 2
60 -20 0 -21 5 -24 40 -24 33 0 40 3 40 20 0 17 7 20 45 20 l45 0 0 -40 c0
-22 5 -40 10 -40 6 0 10 -17 10 -38 0 -31 5 -41 25 -52 31 -16 33 -46 4 -53
-20 -5 -20 -7 -6 -21 19 -20 107 -22 107 -3 0 6 5 4 11 -5 12 -21 44 -24 56
-5 4 6 10 30 13 52 5 38 7 39 43 40 29 1 37 -2 37 -17 0 -14 8 -18 40 -18 36
0 40 3 40 25 0 23 4 25 40 25 l40 0 -1 50 c-2 54 8 78 18 42 7 -29 39 -28 48
1 6 20 8 20 12 4 5 -19 61 -76 76 -77 4 0 7 11 7 25 0 32 7 31 41 -1 26 -25
28 -25 52 -9 14 9 27 26 29 38 4 25 38 37 38 13 0 -20 36 -21 44 -1 3 8 12 15
21 15 9 0 15 9 15 24 0 21 5 25 38 28 34 3 37 5 40 38 1 19 8 45 14 57 10 19
7 26 -15 47 -14 13 -24 26 -21 29 2 2 -10 18 -27 35 -28 27 -31 36 -27 70 7
52 -4 72 -32 54 -11 -7 -20 -9 -20 -5 0 13 -60 43 -85 43 -13 0 -36 -11 -51
-25z m-377 -417 c-3 -7 -5 -2 -5 12 0 14 2 19 5 13 2 -7 2 -19 0 -25z"/>
<path d="M10700 9263 c0 -25 1 -26 16 -11 9 9 13 21 10 27 -13 20 -26 11 -26
-16z"/>
<path d="M10291 9104 c0 -11 3 -14 6 -6 3 7 2 16 -1 19 -3 4 -6 -2 -5 -13z"/>
<path d="M11330 8970 c0 -5 5 -10 11 -10 5 0 7 5 4 10 -3 6 -8 10 -11 10 -2 0
-4 -4 -4 -10z"/>
<path d="M15880 8845 c0 -45 -4 -56 -21 -66 -32 -17 -10 -30 60 -36 57 -5 61
-5 61 16 0 18 -6 21 -40 21 -22 0 -40 5 -40 10 0 6 5 10 10 10 15 0 12 70 -4
86 -23 22 -26 17 -26 -41z"/>
<path d="M10390 8734 c0 -3 8 -13 17 -22 12 -12 18 -13 21 -4 2 6 10 12 18 12
8 0 14 5 14 10 0 6 -16 10 -35 10 -19 0 -35 -3 -35 -6z"/>
<path d="M9316 8633 c-12 -13 -6 -53 9 -53 9 0 15 9 15 24 0 26 -12 40 -24 29z"/>
<path d="M9260 8520 c0 -35 -3 -40 -23 -40 -23 0 -24 -3 -30 -116 -5 -95 -4
-119 8 -131 26 -25 36 -10 39 57 2 53 6 66 24 78 28 19 29 62 2 69 -11 3 -20
14 -20 24 0 12 7 19 20 19 11 0 20 -7 20 -15 0 -9 8 -19 18 -22 9 -4 20 -11
24 -17 4 -6 8 4 8 22 0 26 -4 32 -21 32 -17 0 -20 5 -16 21 7 27 -12 59 -35
59 -14 0 -18 -8 -18 -40z"/>
<path d="M14131 7993 c0 -7 -11 -21 -23 -33 -28 -26 -20 -34 11 -11 15 11 21
25 18 37 -2 10 -5 14 -6 7z"/>
<path d="M14060 7917 c0 -2 14 -16 30 -32 l30 -29 0 32 c0 29 -3 32 -30 32
-16 0 -30 -1 -30 -3z"/>
<path d="M14718 7843 c12 -2 32 -2 45 0 12 2 2 4 -23 4 -25 0 -35 -2 -22 -4z"/>
<path d="M14270 7830 c0 -5 7 -10 15 -10 8 0 15 5 15 10 0 6 -7 10 -15 10 -8
0 -15 -4 -15 -10z"/>
<path d="M14380 7809 c0 -5 5 -7 10 -4 6 3 10 8 10 11 0 2 -4 4 -10 4 -5 0
-10 -5 -10 -11z"/>
<path d="M13918 7363 c12 -2 32 -2 45 0 12 2 2 4 -23 4 -25 0 -35 -2 -22 -4z"/>
<path d="M8556 6985 c-9 -23 -8 -25 9 -25 17 0 19 9 6 28 -7 11 -10 10 -15 -3z"/>
<path d="M3635 6920 c-3 -5 1 -10 10 -10 9 0 13 5 10 10 -3 6 -8 10 -10 10 -2
0 -7 -4 -10 -10z"/>
<path d="M8112 6396 c7 -8 15 -12 17 -11 5 6 -10 25 -20 25 -5 0 -4 -6 3 -14z"/>
<path d="M6948 6073 c7 -3 16 -2 19 1 4 3 -2 6 -13 5 -11 0 -14 -3 -6 -6z"/>
<path d="M6990 6040 c0 -5 7 -10 15 -10 8 0 15 5 15 10 0 6 -7 10 -15 10 -8 0
-15 -4 -15 -10z"/>
<path d="M6948 6003 c7 -3 16 -2 19 1 4 3 -2 6 -13 5 -11 0 -14 -3 -6 -6z"/>
<path d="M5080 5910 c0 -5 5 -10 10 -10 6 0 10 5 10 10 0 6 -4 10 -10 10 -5 0
-10 -4 -10 -10z"/>
<path d="M5590 5824 c-55 -51 -73 -64 -85 -64 -7 0 -27 -13 -43 -29 -19 -20
-36 -28 -49 -25 -11 3 -25 -1 -32 -10 -16 -19 -37 -21 -45 -3 -5 10 -7 10 -12
0 -3 -7 -12 -13 -20 -13 -10 0 -14 -12 -14 -40 0 -29 -4 -40 -15 -40 -8 0 -15
5 -15 10 0 6 -18 10 -40 10 -29 0 -40 4 -40 15 0 11 -11 15 -40 15 -29 0 -40
4 -40 15 0 10 -10 15 -29 15 -16 0 -32 6 -35 13 -5 10 -7 10 -12 0 -3 -7 -23
-13 -45 -13 -28 0 -39 -4 -39 -15 0 -8 -7 -15 -15 -15 -8 0 -15 -4 -15 -10 0
-5 7 -10 15 -10 8 0 15 -7 15 -15 0 -8 4 -15 9 -15 13 0 71 -56 71 -69 0 -6
18 -11 40 -11 l40 0 0 40 0 40 40 0 c29 0 40 -4 40 -15 0 -8 5 -15 10 -15 6 0
13 7 16 15 4 8 17 15 30 15 19 0 24 -5 24 -24 0 -13 -7 -26 -15 -30 -19 -7
-20 -26 -1 -26 8 0 16 -6 19 -12 4 -10 7 -10 18 0 15 14 59 16 59 2 0 -12 133
-11 152 1 8 6 -3 9 -29 9 -50 0 -59 16 -10 18 17 1 53 4 80 8 39 5 47 3 47
-10 0 -9 7 -16 15 -16 8 0 15 7 15 15 0 8 12 18 28 21 41 10 102 46 102 61 0
8 13 13 39 13 31 0 44 6 60 28 l21 27 19 -24 c13 -18 20 -20 23 -10 3 10 14 5
37 -19 18 -17 34 -32 36 -32 2 0 5 12 7 28 l4 27 14 -27 c7 -16 16 -28 20 -28
4 0 13 12 20 28 10 21 14 23 17 10 2 -9 11 -15 19 -12 51 16 50 14 24 34 l-25
20 23 0 c25 0 26 3 12 31 -9 15 -15 17 -30 9 -18 -10 -20 -7 -20 25 l0 35 -50
0 c-27 0 -50 -4 -50 -10 0 -5 -6 -10 -14 -10 -8 0 -16 -7 -20 -15 -4 -11 -20
-15 -56 -15 -38 0 -50 -4 -50 -15 0 -24 -81 -20 -114 6 -22 17 -26 28 -26 70
0 60 -20 66 -21 7 l-1 -43 -19 43 c-21 45 -26 48 -49 26z m-62 -156 c-6 -18
-28 -21 -28 -4 0 9 7 16 16 16 9 0 14 -5 12 -12z"/>
<path d="M4683 5766 c6 -15 -58 -36 -111 -36 -23 0 -31 -5 -36 -25 -4 -14 -11
-25 -18 -25 -6 0 -3 -9 8 -21 19 -21 18 -21 -8 -44 -21 -18 -28 -34 -30 -71
-4 -61 -28 -73 -28 -14 0 41 -1 42 -22 28 -27 -18 -35 -38 -14 -38 25 0 19
-17 -14 -42 -17 -12 -30 -31 -30 -44 0 -12 -10 -28 -21 -36 -19 -12 -22 -25
-26 -146 l-5 -132 36 0 c24 0 43 -8 60 -25 23 -23 33 -25 111 -25 69 0 85 3
85 15 0 11 11 15 39 15 39 0 40 1 43 38 l3 37 14 -27 c8 -16 17 -28 20 -28 3
0 18 21 34 46 23 39 27 56 27 120 0 43 -4 74 -10 74 -5 0 -10 18 -10 40 0 22
5 40 10 40 6 0 10 -18 10 -40 0 -33 3 -40 20 -40 17 0 20 7 20 40 0 22 5 40
10 40 6 0 10 5 10 11 0 6 16 26 35 43 32 30 34 34 20 52 -14 19 -15 18 -35 -6
l-20 -25 0 42 c0 31 4 43 18 46 16 4 16 5 0 6 -13 1 -18 10 -18 30 0 20 6 31
18 34 16 4 16 5 0 6 -10 0 -18 5 -18 9 0 5 -18 15 -40 22 -27 9 -40 19 -40 32
0 14 -8 18 -35 18 -19 0 -35 5 -35 10 0 6 -7 10 -16 10 -10 0 -14 -6 -11 -14z
m97 -231 c0 -8 -7 -15 -15 -15 -16 0 -20 12 -8 23 11 12 23 8 23 -8z m0 -240
c0 -8 -7 -15 -15 -15 -16 0 -20 12 -8 23 11 12 23 8 23 -8z"/>
<path d="M6140 5690 c0 -5 5 -10 10 -10 6 0 10 5 10 10 0 6 -4 10 -10 10 -5 0
-10 -4 -10 -10z"/>
<path d="M7011 5626 c-12 -18 -21 -37 -21 -41 0 -10 60 -65 71 -65 14 0 10 30
-6 46 -17 18 -20 34 -5 34 16 0 12 47 -4 53 -10 4 -23 -6 -35 -27z"/>
<path d="M7220 5640 c0 -13 -7 -20 -20 -20 -11 0 -20 -4 -20 -10 0 -5 9 -10
20 -10 11 0 20 5 20 10 0 6 9 10 20 10 13 0 20 7 20 20 0 13 -7 20 -20 20 -13
0 -20 -7 -20 -20z"/>
<path d="M4460 5640 c0 -5 5 -10 10 -10 6 0 10 5 10 10 0 6 -4 10 -10 10 -5 0
-10 -4 -10 -10z"/>
<path d="M5180 5430 c0 -5 5 -10 10 -10 6 0 10 5 10 10 0 6 -4 10 -10 10 -5 0
-10 -4 -10 -10z"/>
<path d="M5240 5430 c0 -5 5 -10 10 -10 6 0 10 5 10 10 0 6 -4 10 -10 10 -5 0
-10 -4 -10 -10z"/>
<path d="M5205 5401 c-7 -12 12 -24 25 -16 11 7 4 25 -10 25 -5 0 -11 -4 -15
-9z"/>
<path d="M16948 5353 c7 -3 16 -2 19 1 4 3 -2 6 -13 5 -11 0 -14 -3 -6 -6z"/>
<path d="M3920 4920 c0 -13 5 -18 15 -14 8 4 15 10 15 14 0 4 -7 10 -15 14
-10 4 -15 -1 -15 -14z"/>
<path d="M15778 4793 c7 -3 16 -2 19 1 4 3 -2 6 -13 5 -11 0 -14 -3 -6 -6z"/>
<path d="M17950 4670 c8 -5 20 -10 25 -10 6 0 3 5 -5 10 -8 5 -19 10 -25 10
-5 0 -3 -5 5 -10z"/>
<path d="M16162 4548 c5 -15 28 -23 28 -10 0 5 -7 13 -16 16 -10 4 -14 1 -12
-6z"/>
<path d="M16212 4508 c2 -6 19 -19 38 -29 18 -10 38 -23 44 -29 12 -12 26 -13
26 -2 0 5 -17 17 -37 28 -21 10 -42 25 -46 32 -10 15 -30 16 -25 0z"/>
<path d="M18270 4480 c20 -13 33 -13 25 0 -3 6 -14 10 -23 10 -15 0 -15 -2 -2
-10z"/>
<path d="M18316 4461 c-6 -9 36 -31 59 -31 8 0 15 -4 15 -8 0 -9 147 -114 195
-140 13 -7 37 -26 53 -42 41 -41 101 -80 123 -80 11 0 19 -4 19 -10 0 -5 5
-10 10 -10 6 0 33 -16 61 -35 28 -19 56 -35 63 -35 15 0 -42 46 -76 62 -16 7
-28 16 -28 20 0 5 -5 8 -11 8 -6 0 -17 7 -25 15 -9 8 -46 36 -82 62 -37 26
-69 50 -72 53 -3 3 -17 11 -32 19 -16 8 -28 18 -28 23 0 4 -6 8 -14 8 -8 0
-34 20 -58 44 -24 24 -62 49 -84 56 -21 7 -43 16 -48 21 -13 11 -33 12 -40 0z"/>
<path d="M16376 4397 c3 -10 9 -15 12 -12 3 3 0 11 -7 18 -10 9 -11 8 -5 -6z"/>
<path d="M16405 4370 c3 -5 10 -10 16 -10 5 0 9 5 9 10 0 6 -7 10 -16 10 -8 0
-12 -4 -9 -10z"/>
<path d="M16460 4330 c0 -5 5 -10 11 -10 5 0 7 5 4 10 -3 6 -8 10 -11 10 -2 0
-4 -4 -4 -10z"/>
<path d="M3860 4260 c0 -11 5 -20 10 -20 6 0 10 9 10 20 0 11 -4 20 -10 20 -5
0 -10 -9 -10 -20z"/>
<path d="M6014 4253 c-25 -3 -31 -8 -27 -22 3 -11 -1 -18 -10 -18 -27 0 -77
-25 -77 -39 0 -9 -17 -14 -52 -16 l-53 -3 3 -77 c3 -52 0 -78 -7 -78 -6 0 -11
-18 -11 -40 0 -22 5 -40 10 -40 6 0 10 -22 10 -50 0 -27 5 -50 10 -50 6 0 10
11 10 25 0 27 17 34 26 10 4 -8 12 -15 19 -15 7 0 16 -6 19 -12 5 -10 7 -10
12 0 3 6 12 12 20 12 10 0 14 -12 14 -40 0 -36 3 -40 25 -40 20 0 25 -5 25
-25 0 -22 4 -25 38 -25 38 0 38 -1 63 -65 24 -65 39 -82 39 -46 0 11 5 23 10
26 6 4 10 -15 10 -49 0 -56 0 -56 30 -56 28 0 30 -3 30 -36 0 -54 17 -64 104
-64 44 0 76 4 76 10 0 6 -7 10 -15 10 -8 0 -15 7 -15 15 0 12 13 15 55 15 31
0 55 4 55 10 0 7 6 7 20 0 17 -9 22 -7 32 15 6 14 15 25 20 25 4 0 8 30 8 66
0 73 12 94 54 94 24 0 26 4 26 40 l0 40 -40 0 -40 0 0 91 c0 89 1 92 31 120
17 16 35 29 40 29 5 0 9 12 9 26 0 29 21 54 44 54 12 0 16 10 16 40 0 22 5 40
10 40 6 0 10 5 10 10 0 6 -18 10 -40 10 -22 0 -40 -4 -40 -10 0 -5 -7 -10 -15
-10 -8 0 -15 7 -15 15 0 8 7 15 15 15 9 0 15 9 15 25 0 18 -5 25 -20 25 -11 0
-23 -7 -26 -15 -4 -8 -17 -15 -30 -15 -14 0 -27 7 -30 15 -9 23 -212 22 -229
-2 -16 -21 -38 -7 -29 19 5 18 3 20 -12 13 -11 -4 -30 -10 -44 -13 -14 -3 -29
-11 -33 -18 -13 -22 -27 -16 -27 11 0 14 -4 25 -10 25 -5 0 -10 -4 -10 -10 0
-5 -13 -10 -30 -10 -16 0 -30 5 -30 10 0 6 -3 9 -7 8 -5 0 -22 -3 -39 -5z
m556 -158 c10 -13 9 -15 -9 -15 -12 0 -21 6 -21 15 0 8 4 15 9 15 5 0 14 -7
21 -15z m-748 -130 c-2 -25 -8 -45 -13 -45 -14 0 -11 78 4 83 6 3 12 6 12 6 0
1 -1 -19 -3 -44z m612 -110 c4 -10 -1 -15 -14 -15 -13 0 -18 5 -14 15 4 8 10
15 14 15 4 0 10 -7 14 -15z m26 -215 c0 -29 -4 -40 -15 -40 -11 0 -15 11 -15
40 0 29 4 40 15 40 11 0 15 -11 15 -40z m-126 -135 c-4 -8 -12 -15 -20 -15 -8
0 -14 7 -14 15 0 8 9 15 20 15 13 0 18 -5 14 -15z"/>
<path d="M16609 4219 c12 -12 25 -19 28 -15 7 7 -23 36 -38 36 -7 0 -3 -9 10
-21z"/>
<path d="M16650 4190 c0 -5 5 -10 11 -10 5 0 7 5 4 10 -3 6 -8 10 -11 10 -2 0
-4 -4 -4 -10z"/>
<path d="M16717 4135 c20 -19 39 -32 42 -29 6 6 -58 64 -71 64 -4 0 9 -16 29
-35z"/>
<path d="M5740 4150 c0 -5 4 -10 9 -10 6 0 13 5 16 10 3 6 -1 10 -9 10 -9 0
-16 -4 -16 -10z"/>
<path d="M5740 4090 c0 -5 7 -10 16 -10 8 0 12 5 9 10 -3 6 -10 10 -16 10 -5
0 -9 -4 -9 -10z"/>
<path d="M16856 4037 c3 -10 9 -15 12 -12 3 3 0 11 -7 18 -10 9 -11 8 -5 -6z"/>
<path d="M19020 3985 c7 -8 20 -15 28 -15 13 0 12 3 -4 15 -25 19 -40 19 -24
0z"/>
<path d="M19073 3943 c9 -2 17 -9 17 -14 0 -5 5 -9 12 -9 6 0 20 -7 30 -17 10
-9 18 -11 18 -5 0 13 -62 52 -81 51 -8 -1 -7 -3 4 -6z"/>
<path d="M19162 3878 c3 -7 13 -15 24 -17 16 -3 17 -1 5 13 -16 19 -34 21 -29
4z"/>
<path d="M6040 3670 c0 -5 5 -10 10 -10 6 0 10 5 10 10 0 6 -4 10 -10 10 -5 0
-10 -4 -10 -10z"/>
<path d="M6280 3351 c0 -6 5 -13 10 -16 6 -3 10 1 10 9 0 9 -4 16 -10 16 -5 0
-10 -4 -10 -9z"/>
<path d="M3770 3325 c0 -14 5 -25 10 -25 6 0 10 11 10 25 0 14 -4 25 -10 25
-5 0 -10 -11 -10 -25z"/>
<path d="M3760 3230 c0 -16 5 -30 10 -30 6 0 10 14 10 30 0 17 -4 30 -10 30
-5 0 -10 -13 -10 -30z"/>
<path d="M17080 3210 c0 -5 5 -10 10 -10 6 0 10 5 10 10 0 6 -4 10 -10 10 -5
0 -10 -4 -10 -10z"/>
<path d="M3725 3190 c3 -5 8 -10 11 -10 2 0 4 5 4 10 0 6 -5 10 -11 10 -5 0
-7 -4 -4 -10z"/>
<path d="M4205 3130 c-3 -5 -1 -10 4 -10 6 0 11 5 11 10 0 6 -2 10 -4 10 -3 0
-8 -4 -11 -10z"/>
<path d="M4170 3080 c0 -22 5 -40 10 -40 6 0 10 18 10 40 0 22 -4 40 -10 40
-5 0 -10 -18 -10 -40z"/>
<path d="M4052 3029 c-15 -62 -15 -69 -2 -69 6 0 10 18 10 40 l0 40 40 0 c33
0 40 3 40 20 0 23 -10 26 -28 8 -9 -9 -15 -9 -24 0 -19 19 -24 15 -36 -39z"/>
<path d="M4220 3056 c0 -9 5 -16 10 -16 6 0 10 4 10 9 0 6 -4 13 -10 16 -5 3
-10 -1 -10 -9z"/>
<path d="M16840 3014 c0 -34 28 -63 41 -43 6 9 4 18 -6 25 -8 6 -15 19 -15 28
0 9 -4 16 -10 16 -5 0 -10 -12 -10 -26z"/>
<path d="M4000 2980 c0 -11 5 -20 10 -20 6 0 10 9 10 20 0 11 -4 20 -10 20 -5
0 -10 -9 -10 -20z"/>
<path d="M3930 2970 c0 -5 5 -10 10 -10 6 0 10 5 10 10 0 6 -4 10 -10 10 -5 0
-10 -4 -10 -10z"/>
<path d="M4140 2970 c0 -5 18 -10 40 -10 22 0 40 5 40 10 0 6 -18 10 -40 10
-22 0 -40 -4 -40 -10z"/>
<path d="M3720 2840 c0 -5 5 -10 10 -10 6 0 10 5 10 10 0 6 -4 10 -10 10 -5 0
-10 -4 -10 -10z"/>
<path d="M3733 2760 c0 -25 2 -35 4 -22 2 12 2 32 0 45 -2 12 -4 2 -4 -23z"/>
<path d="M3893 2670 c0 -30 2 -43 4 -27 2 15 2 39 0 55 -2 15 -4 2 -4 -28z"/>
<path d="M3822 2645 c0 -16 2 -22 5 -12 2 9 2 23 0 30 -3 6 -5 -1 -5 -18z"/>
<path d="M4060 2144 c0 -9 5 -14 12 -12 18 6 21 28 4 28 -9 0 -16 -7 -16 -16z"/>
<path d="M4060 1850 c0 -5 5 -10 10 -10 6 0 10 5 10 10 0 6 -4 10 -10 10 -5 0
-10 -4 -10 -10z"/>
<path d="M3980 600 c0 -5 5 -10 10 -10 6 0 10 5 10 10 0 6 -4 10 -10 10 -5 0
-10 -4 -10 -10z"/>
<path d="M5398 323 c7 -3 16 -2 19 1 4 3 -2 6 -13 5 -11 0 -14 -3 -6 -6z"/>
<path d="M5240 304 c0 -9 -9 -18 -20 -21 -11 -3 -20 -14 -20 -24 0 -21 -15
-25 -24 -6 -5 10 -7 10 -12 0 -3 -7 -10 -13 -15 -13 -12 0 -45 -33 -59 -59 -7
-14 -21 -21 -40 -21 -29 0 -30 -1 -30 -50 0 -38 -4 -50 -15 -50 -8 0 -15 -9
-15 -20 0 -11 7 -20 15 -20 8 0 15 -4 15 -10 0 -6 82 -10 225 -10 l225 0 0 40
c0 29 4 40 15 40 11 0 15 11 15 40 0 39 -8 47 -42 41 -5 0 -8 4 -8 10 0 6 -7
17 -15 25 -22 22 -18 44 8 44 l22 1 -24 19 c-14 12 -38 20 -62 20 -32 0 -39 3
-39 20 0 26 -3 26 -42 -12 l-33 -33 -3 33 c-3 32 -22 46 -22 16z"/>
<path d="M5740 304 c0 -9 5 -14 12 -12 18 6 21 28 4 28 -9 0 -16 -7 -16 -16z"/>
<path d="M5797 263 c-12 -11 -8 -23 8 -23 11 0 15 -11 15 -40 l0 -40 -40 0
-40 0 2 -82 c1 -46 3 -64 5 -40 4 39 6 42 33 42 27 0 29 -3 33 -42 l4 -43 1
43 2 42 40 0 40 0 0 -40 c0 -22 5 -40 10 -40 6 0 10 47 10 120 l0 120 -50 0
c-38 0 -50 4 -50 15 0 16 -12 20 -23 8z"/>
<path d="M5470 225 c0 -8 7 -15 15 -15 8 0 15 7 15 15 0 8 -7 15 -15 15 -8 0
-15 -7 -15 -15z"/>
<path d="M4960 100 c-10 -18 -8 -20 20 -20 28 0 30 2 20 20 -6 11 -15 20 -20
20 -5 0 -14 -9 -20 -20z"/>
</g>
</svg>
